<svg width="144" height="42" xmlns="http://www.w3.org/2000/svg"><g fill="none" fill-rule="evenodd"><path d="M51.417 31.89c-.771 0-1.464-.291-2.078-.873l.25-.303c.29.285.578.492.863.619a2.4 2.4 0 0 0 .988.19c.383 0 .696-.102.94-.307a.988.988 0 0 0 .364-.79c0-.302-.102-.54-.306-.717-.204-.177-.588-.325-1.153-.445-.62-.134-1.064-.321-1.335-.56-.27-.239-.405-.569-.405-.99a1.3 1.3 0 0 1 .472-1.02c.314-.275.71-.413 1.187-.413.363 0 .681.053.954.16.273.106.544.274.815.502l-.243.32c-.448-.41-.961-.616-1.541-.616-.374 0-.677.1-.91.3a.94.94 0 0 0-.35.744c0 .307.104.55.313.732.208.182.605.335 1.19.46.595.13 1.026.314 1.294.553.268.239.402.56.402.966 0 .436-.16.793-.48 1.07-.32.279-.73.418-1.23.418m3.788-.078v-5.453h.362l2.071 3.225 2.072-3.225h.36v5.453h-.383v-4.736l-2.041 3.139h-.03l-2.042-3.14v4.737h-.369m8.205-1.893h2.72l-1.356-3.155-1.364 3.155zm-1.216 1.893l2.403-5.492h.369l2.403 5.492h-.42l-.656-1.527h-3.045l-.656 1.527h-.398zm7.681-2.625h1.74c.442 0 .803-.113 1.083-.34.28-.225.42-.533.42-.922 0-.369-.13-.66-.39-.873-.26-.213-.624-.32-1.091-.32h-1.762v2.455zm-.383 2.625v-5.453h2.167c.63 0 1.113.18 1.452.537.26.276.391.618.391 1.029 0 .441-.138.794-.413 1.06-.275.264-.641.43-1.098.498l1.703 2.329h-.487l-1.644-2.26h-1.688v2.26h-.383zm7.821 0v-5.08h-1.799v-.373h3.981v.374h-1.799v5.079h-.383m7.726 0v-5.453h.383v2.524h3.303v-2.524h.383v5.453h-.383v-2.555h-3.303v2.555h-.383m6.686 0v-5.453h3.67v.374H92.11v2.142h2.957v.374H92.11v2.189h3.325v.374h-3.708m6.14-.374h1.334c.702 0 1.27-.223 1.7-.67.428-.447.643-1.008.643-1.683 0-.664-.215-1.223-.644-1.674-.43-.452-.997-.678-1.699-.678h-1.334v4.705zm-.384.374v-5.453H99.2c.806 0 1.464.258 1.975.775.511.517.767 1.167.767 1.951 0 .78-.257 1.429-.77 1.948-.514.52-1.172.779-1.972.779h-1.718zm8.95.093c-.792 0-1.423-.27-1.892-.81-.468-.54-.703-1.21-.703-2.01 0-.763.238-1.424.714-1.982.478-.558 1.09-.837 1.836-.837.398 0 .743.06 1.036.179.292.12.576.298.852.537l-.252.304a2.364 2.364 0 0 0-1.658-.654c-.615 0-1.122.238-1.526.716-.402.478-.604 1.057-.604 1.737 0 .722.2 1.313.597 1.773.397.46.936.689 1.614.689.31 0 .61-.058.903-.175.292-.117.539-.266.74-.448v-1.566h-1.724v-.374h2.093v2.103a3.163 3.163 0 0 1-.91.588 2.75 2.75 0 0 1-1.116.23m4.445-.093v-5.453h3.67v.374h-3.287v2.142h2.956v.374h-2.956v2.189h3.324v.374h-3.707m9.391 0v-5.453h3.635v.374h-3.251v2.236h2.918v.374h-2.918v2.469h-.384m7.991.086c-.634 0-1.145-.206-1.533-.616-.388-.41-.583-.99-.583-1.737V26.36h.383v3.147c0 .639.155 1.136.466 1.492.309.356.736.533 1.282.533.535 0 .956-.17 1.26-.51.305-.34.457-.832.457-1.476V26.36h.383v3.14c0 .763-.19 1.353-.574 1.771-.384.419-.898.628-1.54.628m4.385-.087v-5.453h.361l3.56 4.744v-4.744h.369v5.453h-.288l-3.634-4.845v4.845h-.368m7.024-.374h1.335c.703 0 1.27-.223 1.699-.67.43-.447.645-1.008.645-1.683 0-.664-.215-1.223-.645-1.674-.429-.452-.996-.678-1.7-.678h-1.333v4.705zm-.382.374v-5.453h1.717c.806 0 1.465.258 1.976.775.511.517.767 1.167.767 1.951 0 .78-.257 1.429-.77 1.948-.514.52-1.172.779-1.973.779h-1.717zM52.762 21.417v-9.454H49.31v-.696h7.637v.696h-3.451v9.454h-.735m8.737.054v-10.15h7.042v.695h-6.307v3.988h5.671v.696h-5.67v4.075h6.377v.696h-7.113m12.237-4.921h3.131c.796 0 1.446-.211 1.95-.634.505-.424.757-1 .757-1.73 0-.692-.235-1.237-.703-1.636-.47-.399-1.124-.598-1.964-.598h-3.171v4.599zm-.69 4.921v-10.22h3.9c1.133 0 2.004.336 2.615 1.007.468.516.703 1.159.703 1.927 0 .828-.248 1.49-.743 1.986-.496.497-1.155.808-1.977.935l3.065 4.365h-.876l-2.959-4.234h-3.038v4.234h-.69zm13.603-1.909c.81.874 1.82 1.31 3.033 1.31 1.213 0 2.22-.431 3.02-1.296.8-.864 1.2-1.929 1.2-3.192 0-1.245-.405-2.304-1.215-3.179-.81-.874-1.82-1.31-3.033-1.31-1.213 0-2.219.432-3.02 1.296-.8.865-1.2 1.93-1.2 3.193 0 1.244.405 2.304 1.215 3.178zm6.614.456c-.938 1.017-2.14 1.525-3.609 1.525-1.468 0-2.667-.506-3.595-1.518-.928-1.012-1.392-2.226-1.392-3.641 0-1.406.469-2.618 1.406-3.635.938-1.016 2.141-1.525 3.61-1.525 1.468 0 2.666.506 3.594 1.518.928 1.012 1.392 2.226 1.392 3.642 0 1.406-.469 2.617-1.406 3.634zm5.527 1.486V11.271h7.028v.701H99.53v4.196h5.646v.702H99.53v4.634h-.741m14.932.035c-1.25 0-2.259-.38-3.025-1.141-.766-.76-1.149-1.834-1.149-3.22V11.27h.757v5.835c0 1.184.305 2.106.916 2.766.61.66 1.454.99 2.53.99 1.057 0 1.885-.316 2.487-.947.6-.63.901-1.543.901-2.737V11.27h.756v5.82c0 1.416-.378 2.511-1.134 3.286-.756.775-1.77 1.163-3.039 1.163m8.839-.134v-10.15h.694l6.83 8.83v-8.83h.707v10.15h-.551l-6.972-9.02v9.02h-.707m13.477-.696h2.56c1.348 0 2.434-.416 3.26-1.247.824-.832 1.237-1.876 1.237-3.132 0-1.238-.413-2.277-1.237-3.118-.826-.841-1.912-1.262-3.26-1.262h-2.56v8.759zm-.735.696v-10.15h3.294c1.547 0 2.81.48 3.79 1.442s1.472 2.173 1.472 3.633c0 1.45-.493 2.658-1.478 3.625-.985.967-2.246 1.45-3.784 1.45h-3.294zM20.962 23.308c-1.212 0-2.195-1.008-2.195-2.25 0-1.243.983-2.25 2.195-2.25 1.213 0 2.196 1.007 2.196 2.25 0 1.242-.983 2.25-2.196 2.25" fill="#455074"/><path d="M20.962 23.308c-1.212 0-2.195-1.008-2.195-2.25 0-1.243.983-2.25 2.195-2.25 1.213 0 2.196 1.007 2.196 2.25 0 1.242-.983 2.25-2.196 2.25z" stroke="#455074" stroke-width=".968"/><path d="M11.832 27.745c-1.04-.639-1.379-2.02-.755-3.086a2.166 2.166 0 0 1 3.011-.774c1.04.638 1.379 2.02.755 3.086a2.166 2.166 0 0 1-3.011.774" fill="#455074"/><path d="M11.832 27.745c-1.04-.639-1.379-2.02-.755-3.086a2.166 2.166 0 0 1 3.011-.774c1.04.638 1.379 2.02.755 3.086a2.166 2.166 0 0 1-3.011.774z" stroke="#455074" stroke-width=".968"/><path d="M12.073 39.096c-1.212 0-2.195-1.007-2.195-2.25 0-1.242.983-2.25 2.195-2.25 1.213 0 2.196 1.008 2.196 2.25 0 1.243-.983 2.25-2.196 2.25" fill="#455074"/><path d="M12.073 39.096c-1.212 0-2.195-1.007-2.195-2.25 0-1.242.983-2.25 2.195-2.25 1.213 0 2.196 1.008 2.196 2.25 0 1.243-.983 2.25-2.196 2.25z" stroke="#455074" stroke-width=".968"/><path d="M20.97 41.2c-1.213 0-2.196-1.007-2.196-2.25 0-1.242.983-2.25 2.195-2.25 1.213 0 2.196 1.008 2.196 2.25 0 1.243-.983 2.25-2.196 2.25" fill="#455074"/><path d="M20.97 41.2c-1.213 0-2.196-1.007-2.196-2.25 0-1.242.983-2.25 2.195-2.25 1.213 0 2.196 1.008 2.196 2.25 0 1.243-.983 2.25-2.196 2.25z" stroke="#455074" stroke-width=".968"/><path d="M19.816 32.328c-1.04-.639-1.378-2.02-.755-3.087a2.166 2.166 0 0 1 3.012-.773c1.04.638 1.378 2.02.755 3.086a2.166 2.166 0 0 1-3.012.774" fill="#455074"/><path d="M19.816 32.328c-1.04-.639-1.378-2.02-.755-3.087a2.166 2.166 0 0 1 3.012-.773c1.04.638 1.378 2.02.755 3.086a2.166 2.166 0 0 1-3.012.774z" stroke="#455074" stroke-width=".968"/><path d="M29.518 39.096c-1.213 0-2.196-1.007-2.196-2.25 0-1.242.983-2.25 2.196-2.25 1.212 0 2.195 1.008 2.195 2.25 0 1.243-.983 2.25-2.195 2.25" fill="#455074"/><path d="M29.518 39.096c-1.213 0-2.196-1.007-2.196-2.25 0-1.242.983-2.25 2.196-2.25 1.212 0 2.195 1.008 2.195 2.25 0 1.243-.983 2.25-2.195 2.25z" stroke="#455074" stroke-width=".968"/><path d="M36.018 32.41c-1.212 0-2.195-1.007-2.195-2.25 0-1.242.983-2.249 2.195-2.249 1.213 0 2.196 1.007 2.196 2.25 0 1.242-.983 2.25-2.196 2.25" fill="#455074"/><path d="M36.018 32.41c-1.212 0-2.195-1.007-2.195-2.25 0-1.242.983-2.249 2.195-2.249 1.213 0 2.196 1.007 2.196 2.25 0 1.242-.983 2.25-2.196 2.25z" stroke="#455074" stroke-width=".968"/><path d="M3.546 23.312c-1.213 0-2.196-1.008-2.196-2.25 0-1.243.983-2.25 2.196-2.25 1.212 0 2.195 1.007 2.195 2.25 0 1.242-.983 2.25-2.195 2.25" fill="#455074"/><path d="M3.546 23.312c-1.213 0-2.196-1.008-2.196-2.25 0-1.243.983-2.25 2.196-2.25 1.212 0 2.195 1.007 2.195 2.25 0 1.242-.983 2.25-2.195 2.25z" stroke="#455074" stroke-width=".968"/><path d="M5.9 14.553c-1.212 0-2.195-1.007-2.195-2.25 0-1.242.983-2.249 2.196-2.249 1.212 0 2.195 1.007 2.195 2.25 0 1.242-.983 2.25-2.195 2.25" fill="#455074"/><path d="M5.9 14.553c-1.212 0-2.195-1.007-2.195-2.25 0-1.242.983-2.249 2.196-2.249 1.212 0 2.195 1.007 2.195 2.25 0 1.242-.983 2.25-2.195 2.25z" stroke="#455074" stroke-width=".968"/><path d="M11.9 18.188c-1.04-.639-1.377-2.02-.754-3.087a2.166 2.166 0 0 1 3.011-.773c1.04.638 1.379 2.02.756 3.086a2.166 2.166 0 0 1-3.012.774" fill="#455074"/><path d="M11.9 18.188c-1.04-.639-1.377-2.02-.754-3.087a2.166 2.166 0 0 1 3.011-.773c1.04.638 1.379 2.02.756 3.086a2.166 2.166 0 0 1-3.012.774z" stroke="#455074" stroke-width=".968"/><path d="M5.947 32.392c-1.213 0-2.196-1.008-2.196-2.25 0-1.243.983-2.25 2.196-2.25 1.212 0 2.195 1.007 2.195 2.25 0 1.242-.983 2.25-2.195 2.25" fill="#455074"/><path d="M5.947 32.392c-1.213 0-2.196-1.008-2.196-2.25 0-1.243.983-2.25 2.196-2.25 1.212 0 2.195 1.007 2.195 2.25 0 1.242-.983 2.25-2.195 2.25z" stroke="#455074" stroke-width=".968"/><path d="M29.969 14.359a2.28 2.28 0 0 1 .743 3.086 2.164 2.164 0 0 1-3.016.744 2.28 2.28 0 0 1-.744-3.087 2.164 2.164 0 0 1 3.017-.743" fill="#455074"/><path d="M29.969 14.359a2.28 2.28 0 0 1 .743 3.086 2.164 2.164 0 0 1-3.016.744 2.28 2.28 0 0 1-.744-3.087 2.164 2.164 0 0 1 3.017-.743z" stroke="#455074" stroke-width=".968"/><path d="M29.545 3.379c1.215.008 2.194 1.018 2.186 2.256-.008 1.238-1 2.235-2.215 2.226-1.215-.008-2.194-1.018-2.186-2.256.008-1.238 1-2.234 2.215-2.226" fill="#455074"/><path d="M29.545 3.379c1.215.008 2.194 1.018 2.186 2.256-.008 1.238-1 2.235-2.215 2.226-1.215-.008-2.194-1.018-2.186-2.256.008-1.238 1-2.234 2.215-2.226z" stroke="#455074" stroke-width=".968"/><path d="M20.979 1.28c1.215.009 2.194 1.02 2.185 2.257-.008 1.238-1 2.235-2.214 2.226-1.216-.008-2.194-1.018-2.186-2.256.008-1.238 1-2.234 2.215-2.226" fill="#455074"/><path d="M20.979 1.28c1.215.009 2.194 1.02 2.185 2.257-.008 1.238-1 2.235-2.214 2.226-1.216-.008-2.194-1.018-2.186-2.256.008-1.238 1-2.234 2.215-2.226z" stroke="#455074" stroke-width=".968"/><path d="M22.067 9.772a2.28 2.28 0 0 1 .743 3.087 2.164 2.164 0 0 1-3.016.744 2.28 2.28 0 0 1-.744-3.087 2.164 2.164 0 0 1 3.017-.744" fill="#455074"/><path d="M22.067 9.772a2.28 2.28 0 0 1 .743 3.087 2.164 2.164 0 0 1-3.016.744 2.28 2.28 0 0 1-.744-3.087 2.164 2.164 0 0 1 3.017-.744z" stroke="#455074" stroke-width=".968"/><path d="M12.43 3.417c1.215.009 2.194 1.019 2.186 2.256-.008 1.238-1 2.235-2.215 2.227-1.215-.008-2.194-1.019-2.186-2.256.008-1.238 1-2.235 2.215-2.227" fill="#455074"/><path d="M12.43 3.417c1.215.009 2.194 1.019 2.186 2.256-.008 1.238-1 2.235-2.215 2.227-1.215-.008-2.194-1.019-2.186-2.256.008-1.238 1-2.235 2.215-2.227z" stroke="#455074" stroke-width=".968"/><path d="M38.43 18.822c1.214.009 2.193 1.019 2.185 2.257-.008 1.237-1 2.234-2.215 2.226-1.215-.008-2.194-1.018-2.186-2.256.008-1.238 1-2.235 2.215-2.227" fill="#455074"/><path d="M38.43 18.822c1.214.009 2.193 1.019 2.185 2.257-.008 1.237-1 2.234-2.215 2.226-1.215-.008-2.194-1.018-2.186-2.256.008-1.238 1-2.235 2.215-2.227z" stroke="#455074" stroke-width=".968"/><path d="M29.943 23.931a2.28 2.28 0 0 1 .743 3.087 2.164 2.164 0 0 1-3.016.743 2.28 2.28 0 0 1-.744-3.086 2.164 2.164 0 0 1 3.017-.744" fill="#455074"/><path d="M29.943 23.931a2.28 2.28 0 0 1 .743 3.087 2.164 2.164 0 0 1-3.016.743 2.28 2.28 0 0 1-.744-3.086 2.164 2.164 0 0 1 3.017-.744z" stroke="#455074" stroke-width=".968"/><path d="M36.04 10.04c1.214.009 2.193 1.019 2.185 2.257-.008 1.238-1 2.234-2.215 2.226-1.215-.008-2.194-1.018-2.186-2.256.008-1.238 1-2.235 2.215-2.226" fill="#455074"/><path d="M36.04 10.04c1.214.009 2.193 1.019 2.185 2.257-.008 1.238-1 2.234-2.215 2.226-1.215-.008-2.194-1.018-2.186-2.256.008-1.238 1-2.235 2.215-2.226z" stroke="#455074" stroke-width=".968"/></g></svg>