<svg width="129" height="128" xmlns="http://www.w3.org/2000/svg"><g transform="rotate(-14 64.5 64)" fill="none" opacity=".9"><ellipse fill="#C3C9D5" cx="64.5" cy="64" rx="64.5" ry="64"/><path d="M46.513 31.189c2.22.608 4.44 1.014 6.66 1.622 2.22.609 4.441 1.014 6.661 1.623.606.203.807 0 1.01-.609.807-3.448 1.614-6.693 2.421-10.14.202-.609.404-.812 1.01-.609 2.018.609 3.834 1.014 5.852 1.42.606.203.606.405.404.811-.807 3.245-1.615 6.693-2.422 9.938 0 .203 0 .406-.202.811 1.615.406 3.431.812 5.046 1.217.202 0 .404-.405.605-.608.606-2.637 1.211-5.07 2.019-7.707l.605-2.434c0-.406.202-.609.606-.406 2.018.609 4.036 1.014 6.256 1.623.202 0 .202.203.404.203a416.303 416.303 0 0 1-1.816 7.504c-.202 1.014-.404 2.028-.808 3.042-.202.609 0 .811.606 1.014l6.66 3.042c2.018 1.217 3.835 2.84 5.248 4.868 1.816 3.042 2.018 6.287 1.21 9.532-.605 2.231-1.412 4.26-3.027 5.882-1.21 1.217-2.825 2.028-4.44 2.637-.202 0-.404.203-.807.203.807.608 1.614 1.014 2.422 1.622 2.422 1.825 4.036 4.056 4.844 6.896.403 2.23.201 4.665-.404 6.896-.807 2.84-1.817 5.273-3.633 7.504-2.22 2.637-5.046 4.056-8.275 4.462-4.238.608-8.275.203-12.312-.406-.605-.203-1.009 0-1.21.609-.808 3.245-1.615 6.693-2.423 9.938-.201.811-.201 1.014-1.21.608-1.817-.405-3.835-1.014-5.652-1.42-.605-.202-.605-.405-.403-.81.807-3.449 1.614-6.897 2.623-10.142 0-.405.202-.608-.201-.81-1.615-.407-3.23-.812-5.046-1.218-.404 1.826-1.01 3.65-1.413 5.476-.404 1.826-1.01 3.65-1.413 5.476-.202.406-.202.609-.807.406-2.018-.609-4.037-1.014-6.055-1.42-.605-.203-.605-.405-.404-.811.808-3.448 1.615-6.896 2.624-10.14 0-.204.202-.407.202-.812-4.642-1.217-9.284-2.434-14.128-3.65.404-.812.605-1.42 1.01-2.232.806-1.825 1.614-3.65 2.22-5.273.201-.609.403-.609 1.008-.609 1.413.406 3.028.812 4.44 1.015 1.615.405 2.826-.406 3.028-1.826 2.624-10.343 5.248-20.687 7.67-31.234.403-1.622-.606-3.448-2.422-4.056-1.817-.608-3.633-1.014-5.248-1.42-.404 0-.605-.202-.404-.608.606-2.231 1.211-4.665 1.817-6.896-.807.609-.807.609-.606.406zm10.294 50.096c.202 0 .403.202.403.202 3.23.812 6.66 1.826 10.092 2.028 2.422.203 4.642.203 6.862-.608 3.835-1.217 5.45-6.287 3.23-9.532-1.01-1.623-2.625-2.637-4.24-3.651-3.632-2.028-7.87-2.84-11.907-3.65-.606-.204-.606 0-.807.608-.404 2.028-1.01 3.853-1.413 5.881-.808 2.84-1.413 5.68-2.22 8.722zM73.76 60.597c.404 0 1.413-.203 2.22-.405 3.835-.812 5.853-5.274 3.835-8.722-1.009-1.825-2.825-3.042-4.642-3.853-2.825-1.217-5.651-1.825-8.679-2.637-.605-.203-.807 0-1.009.609-1.009 4.259-2.018 8.315-3.229 12.574-.202.406 0 .609.404.812.807.202 1.413.405 2.22.608 3.027.406 5.651 1.014 8.88 1.014z" fill="#FFF"/></g></svg>