<svg width="16" height="18" xmlns="http://www.w3.org/2000/svg" xmlns:xlink="http://www.w3.org/1999/xlink"><defs><path d="M17.5 17.5a.833.833 0 1 1-1.667 0v-1.667a2.5 2.5 0 0 0-2.5-2.5H6.667a2.5 2.5 0 0 0-2.5 2.5V17.5a.833.833 0 0 1-1.667 0v-1.667a4.167 4.167 0 0 1 4.167-4.166h6.666a4.167 4.167 0 0 1 4.167 4.166V17.5zM10 10a4.167 4.167 0 1 1 0-8.333A4.167 4.167 0 0 1 10 10zm0-1.667a2.5 2.5 0 1 0 0-5 2.5 2.5 0 0 0 0 5z" id="a"/></defs><g transform="translate(-2 -1)" fill="none" fill-rule="evenodd"><mask id="b" fill="#fff"><use xlink:href="#a"/></mask><use fill="#000" fill-rule="nonzero" xlink:href="#a"/><g mask="url(#b)" fill="#455074"><path d="M0 0h20v20H0V0z"/></g></g></svg>