<svg width="1440" height="778" xmlns="http://www.w3.org/2000/svg"><g fill="none" fill-rule="evenodd"><path d="M0 0h1440v755.92c-185.89-59.505-328.706-86.505-428.445-80.997-297.43 16.422-330.423 86.32-592.32 97.019C258.775 778.496 119.03 754.6 0 700.252V0z" fill="#1D2343"/><path d="M1046 671.051c84.83-27.419 233.083-41.815 393-14.108V755c-167.828-51.656-298.828-79.64-393-83.949z" fill="#FF3C54" opacity=".2"/><path d="M100 738.23c177.413-39.994 326.148-64.268 446.204-72.823 120.055-8.554 264.32-4.656 432.796 11.695-47.93 1.291-168.697 24.35-362.3 69.176-193.603 44.827-365.837 42.144-516.7-8.048z" fill="#FF3C54" opacity=".1"/><path d="M-1 607c90.728 1.139 147.913 33.385 291.91 73.568 95.998 26.789 251.695 36.13 467.09 28.023-289.664 90.28-542.664 87.104-759-9.528" fill="#FF3C54" opacity=".1"/></g></svg>