<svg width="20" height="16" xmlns="http://www.w3.org/2000/svg" xmlns:xlink="http://www.w3.org/1999/xlink"><defs><path d="M19.167 4.998a.74.74 0 0 1 0 .002v10c0 1.377-1.123 2.5-2.5 2.5H3.333a2.505 2.505 0 0 1-2.5-2.5V5a2.54 2.54 0 0 1 0-.002 2.505 2.505 0 0 1 2.5-2.498h13.334a2.505 2.505 0 0 1 2.5 2.498zm-1.756-.37a.838.838 0 0 0-.744-.461H3.333a.838.838 0 0 0-.744.461L10 9.816l7.411-5.188zm.09 1.973l-7.023 4.915c-.287.2-.669.2-.956 0L2.5 6.601V15c0 .456.377.833.833.833h13.334A.838.838 0 0 0 17.5 15V6.6z" id="a"/></defs><g transform="translate(0 -2)" fill="none" fill-rule="evenodd"><mask id="b" fill="#fff"><use xlink:href="#a"/></mask><use fill="#000" fill-rule="nonzero" xlink:href="#a"/><g mask="url(#b)" fill="#455074"><path d="M0 0h20v20H0V0z"/></g></g></svg>