<svg width="338" height="338" xmlns="http://www.w3.org/2000/svg"><g fill="none" fill-rule="evenodd"><rect fill="#FFF" width="338" height="338" rx="10"/><g fill-rule="nonzero"><path d="M170.13 77.32v67.555c0 .29-.288.58-.578.58-2.024.87-3.76 1.74-5.784 2.61-2.603 1.16-5.495 2.32-8.098 3.769l-9.543 4.349-7.81 3.48-9.543 4.348c-2.603 1.16-5.206 2.32-8.098 3.77-2.024.87-4.338 2.029-6.362 2.899-.29 0-.29.29-.579 0h-.289c.868-1.45 1.735-2.61 2.603-4.06 4.627-7.828 9.544-15.656 14.171-23.484 4.917-8.409 10.122-16.817 15.039-25.225 4.627-7.828 9.255-15.657 13.882-23.195 3.47-5.799 6.94-11.308 10.122-17.107.579 0 .579-.29.868-.29-.29 0 0 0 0 0z" fill="#8A92B2"/><path d="M226.237 170.68c-4.338 2.9-8.965 5.509-13.303 8.118-14.172 8.408-28.054 16.527-42.225 24.935-.289 0-.289.29-.578.29-.29 0-.29-.29-.29-.29v-58.278c0-.29.29-.29.579-.29 1.157.58 2.314 1.16 3.76 1.74 3.47 1.74 7.23 3.19 10.7 4.929 3.182 1.45 6.074 2.9 9.255 4.059 3.181 1.45 6.073 2.9 9.255 4.349 2.603 1.16 5.495 2.32 8.098 3.77 2.602 1.159 5.494 2.319 8.097 3.768 2.025.87 4.05 2.03 6.363 2.9 0-.29 0 0 .29 0z" fill="#454A75"/><path d="M170.13 260.85s-.288 0 0 0c-.288 0-.288 0-.578-.29-5.784-8.117-11.279-15.946-17.063-24.064l-17.352-24.355c-5.495-7.828-11.28-15.657-16.774-23.775l-4.339-6.089c0-.29-.289-.29-.289-.58.29 0 .29.29.579.29 7.808 4.64 15.906 9.278 23.715 13.917 8.965 5.51 18.22 10.728 27.185 16.237 1.446.87 3.182 1.74 4.628 2.61.289 0 .289.29.289.58v45.52z" fill="#8A92B2"/><path d="M113.735 170.68s.29 0 0 0c.29 0 .29 0 0 0 0 .29 0 .29 0 0z" fill="gray"/><path d="M114.024 170.97c0-.29 0-.29 0 0 2.893-1.45 5.785-2.61 8.677-4.06l11.279-5.218c2.892-1.45 5.784-2.61 8.676-4.06 4.049-2.029 8.387-3.769 12.436-5.798 2.892-1.16 5.784-2.61 8.676-3.77 2.025-.87 4.05-1.74 6.074-2.899.289 0 .289-.29.578-.29v59.148c-.29.29-.29 0-.578 0-.868-.58-1.736-.87-2.314-1.45l-52.925-31.313c-.29-.29-.579-.29-.579-.29zm111.924 10.727c0 .29 0 .29-.29.58-16.773 23.775-33.547 47.26-50.321 71.035-1.736 2.61-3.471 4.93-5.206 7.539v-46.1c3.76-2.32 7.52-4.64 11.279-6.67 14.75-8.697 29.5-17.395 44.249-26.094 0-.29.289-.29.289-.29z" fill="#62688F"/><path d="M170.13 144.585V77.61l55.529 92.201c.289.29.578.58.578.87-1.157-.58-2.314-1.16-3.76-1.74-1.446-.58-2.892-1.45-4.338-2.03-.867-.29-1.735-.87-2.892-1.16-1.446-.579-3.181-1.449-4.627-2.029-.868-.29-1.735-.87-2.603-1.16l-6.073-2.609c-1.157-.58-2.025-.87-3.182-1.45-1.446-.58-2.892-1.45-4.338-2.03-.867-.29-1.735-.869-2.603-1.159l-6.073-2.61c-1.157-.58-2.024-.87-3.181-1.45-1.446-.579-2.892-1.449-4.338-2.029-.868-.58-2.025-.87-2.892-1.45l-5.206-2.609v-.58z" fill="#62688F"/></g></g></svg>