<svg width="338" height="338" xmlns="http://www.w3.org/2000/svg"><g fill="none" fill-rule="evenodd"><rect fill="#2A3156" width="338" height="338" rx="10"/><g fill-rule="nonzero"><path d="M169.685 225.697c-30.983-.176-55.805-24.966-55.629-55.733 0-30.944 25.174-55.733 55.98-55.557 30.984.175 55.805 25.14 55.63 55.908-.353 30.768-25.35 55.558-55.981 55.382zm50.523-55.557c0-27.955-22.533-50.46-50.523-50.46-27.815 0-50.348 22.505-50.348 50.284 0 27.954 22.533 50.458 50.524 50.458 27.814 0 50.347-22.504 50.347-50.282z" fill="silver"/><path d="M212.638 170.14c-.352 23.734-19.54 42.898-43.13 42.722-23.94-.351-42.953-19.69-42.6-43.25.351-23.735 19.54-42.547 42.953-42.371 23.765.176 42.777 19.34 42.777 42.899zm-45.594 15.295v-.527c1.232-4.747 2.289-9.318 3.52-14.065.177-.352.53-.88 1.057-1.055 1.232-.528 2.465-1.055 3.697-1.407 2.817-.703 4.401-2.285 4.753-5.098.176-1.23.704-2.462 1.056-3.868a278.51 278.51 0 0 1-8.45 3.34c1.937-7.56 3.697-14.592 5.634-21.976h-16.02c-1.056 0-1.408.351-1.76 1.406l-7.394 27.427c-.176.528-.704 1.055-1.056 1.23-1.585.704-3.345 1.231-4.93 1.935-.351.176-.88.351-.88.527-.704 2.286-1.408 4.747-2.288 7.384 2.465-1.055 4.577-1.934 7.042-2.813a2617.608 2617.608 0 0 1-4.754 18.11h45.419c.88 0 1.232-.177 1.408-1.056.352-1.758.88-3.516 1.408-5.098.352-1.231.528-2.462.88-3.868-9.506-.176-18.836-.352-28.342-.528z" fill="silver"/><path d="M167.044 185.435c9.506.176 18.836.352 28.343.704-.353 1.406-.705 2.637-.88 3.868-.529 1.758-1.057 3.34-1.409 5.098-.176.88-.528 1.055-1.408 1.055h-45.418c1.584-6.153 3.168-11.955 4.753-18.109-2.465.88-4.577 1.758-7.042 2.813a90.5 90.5 0 0 1 2.288-7.384c0-.352.529-.527.88-.527 1.585-.704 3.345-1.231 4.93-1.934.528-.176 1.056-.704 1.056-1.231l7.394-27.427c.176-1.055.528-1.407 1.76-1.407h16.02c-1.937 7.209-3.697 14.417-5.634 21.977a120.62 120.62 0 0 1 8.45-3.34c-.352 1.406-.88 2.637-1.056 3.868-.352 2.813-1.936 4.395-4.753 5.098-1.232.352-2.465.88-3.697 1.407-.352.176-.88.703-1.056 1.055-1.232 4.747-2.465 9.318-3.52 14.065v.351z" fill="#FFF"/></g></g></svg>