<svg width="215" height="215" xmlns="http://www.w3.org/2000/svg"><g fill="none" fill-rule="evenodd" opacity=".6"><rect fill="#FFF" width="214.729" height="214.191" rx="10"/><path d="M110 70c-22.082 0-40 17.918-40 40s17.918 40 40 40 40-17.918 40-40-17.918-40-40-40zm-23.975 43.28v-.252c.379-1.01.757-2.019 1.136-3.154.378-1.01.63-2.02 1.01-3.029.126-.252.252-.378.504-.378h17.035c0 .126-.126.378-.126.505l-1.893 5.678c-.126.378-.253.505-.757.505H86.53c-.126.126-.379.126-.505.126zm47.95-11.608c-1.64 5.047-3.281 10.095-4.921 15.268-1.01 3.155-5.3 7.319-9.969 7.192-10.473-.126-20.946 0-31.293 0h-.631c.126-.378.252-.757.378-1.009a90.479 90.479 0 0 0 1.767-5.426c.126-.505.379-.505.757-.505h28.265c.379 0 .631-.126.757-.504 1.388-4.417 2.902-8.833 4.29-13.25 0-.126.127-.252.127-.504H94.1c0-.253.126-.379.126-.505.631-2.019 1.388-4.038 2.02-6.057.125-.378.251-.504.63-.504h31.798c.631 0 1.388.126 2.019.252 1.767.63 2.776 1.893 3.155 3.66 0 .125.126.252.126.378v1.514z" fill="#C3C9D5" fill-rule="nonzero"/></g></svg>