<svg width="18" height="18" xmlns="http://www.w3.org/2000/svg" xmlns:xlink="http://www.w3.org/1999/xlink"><defs><path d="M8.25 16.5a8.25 8.25 0 1 1 0-16.5 8.25 8.25 0 0 1 0 16.5zm0-1.5a6.75 6.75 0 1 0 0-13.5 6.75 6.75 0 0 0 0 13.5zM9 3.75v4.19l2.03 2.03a.75.75 0 0 1-1.06 1.06L7.72 8.78a.75.75 0 0 1-.22-.53v-4.5a.75.75 0 0 1 1.5 0z" id="a"/></defs><g transform="translate(.75 .75)" fill="none" fill-rule="evenodd"><mask id="b" fill="#fff"><use xlink:href="#a"/></mask><g mask="url(#b)" fill="#455074"><path d="M-.75-.75h18v18h-18v-18z"/></g></g></svg>