<svg width="16" height="18" xmlns="http://www.w3.org/2000/svg" xmlns:xlink="http://www.w3.org/1999/xlink"><defs><path d="M15 6.75V4.5a.75.75 0 0 0-.75-.75h-1.5v.75a.75.75 0 1 1-1.5 0v-.75h-4.5v.75a.75.75 0 0 1-1.5 0v-.75h-1.5A.75.75 0 0 0 3 4.5v2.25h12zm0 1.5H3V15c0 .414.336.75.75.75h10.5A.75.75 0 0 0 15 15V8.25zm-8.25-6h4.5V1.5a.75.75 0 1 1 1.5 0v.75h1.5A2.25 2.25 0 0 1 16.5 4.5V15a2.25 2.25 0 0 1-2.25 2.25H3.75A2.25 2.25 0 0 1 1.5 15V4.5a2.25 2.25 0 0 1 2.25-2.25h1.5V1.5a.75.75 0 0 1 1.5 0v.75z" id="a"/></defs><g transform="translate(-1)" fill="none" fill-rule="evenodd"><mask id="b" fill="#fff"><use xlink:href="#a"/></mask><use fill="#000" fill-rule="nonzero" xlink:href="#a"/><g mask="url(#b)" fill="#455074"><path d="M0 0h18v18H0V0z"/></g></g></svg>