<?xml version="1.0" encoding="UTF-8"?>
<svg width="144px" height="42px" viewBox="0 0 144 42" version="1.1" xmlns="http://www.w3.org/2000/svg" xmlns:xlink="http://www.w3.org/1999/xlink">
    <!-- Generator: Sketch 49.3 (51167) - http://www.bohemiancoding.com/sketch -->
    <title>logo/black</title>
    <desc>Created with Sketch.</desc>
    <defs></defs>
    <g id="Landing" stroke="none" stroke-width="1" fill="none" fill-rule="evenodd">
        <g id="Hedge-funds" transform="translate(-91.000000, -29.000000)">
            <g id="Header/land">
                <g id="logo/black" transform="translate(92.349998, 30.200000)">
                    <g id="TEROFUND-LOGO-v1.3_1-(1)">
                        <g id="Text" transform="translate(47.960999, 10.000000)" fill="#455074">
                            <g id="SHF" transform="translate(0.000000, 14.733333)">
                                <path d="M2.10639504,5.95643067 C1.33478049,5.95643067 0.641838,5.66565609 0.0275675638,5.08397923 L0.278206337,4.78017917 C0.568120714,5.06571802 0.855618131,5.27233782 1.14069859,5.39940005 C1.4256582,5.52671769 1.75496902,5.59031265 2.12851022,5.59031265 C2.51184011,5.59031265 2.825199,5.48776896 3.06846605,5.28268158 C3.31161224,5.07746649 3.43330619,4.81401987 3.43330619,4.4918309 C3.43330619,4.19084026 3.33131047,3.95191218 3.12743988,3.77530206 C2.92344844,3.59881964 2.53878922,3.45081448 1.97370392,3.33115889 C1.35447872,3.19630691 0.909637191,3.00935303 0.63942104,2.77042495 C0.369084041,2.53162457 0.233975965,2.20177356 0.233975965,1.78112733 C0.233975965,1.37606059 0.391199227,1.03599352 0.705766598,0.760670731 C1.02021312,0.485347939 1.41586951,0.347814244 1.89261491,0.347814244 C2.25624657,0.347814244 2.57443938,0.401065452 2.84731419,0.507440167 C3.12006815,0.613942583 3.39149278,0.781485952 3.66182978,1.00994257 L3.41856273,1.32932212 C2.97130425,0.919147347 2.4577002,0.71380456 1.87787145,0.71380456 C1.50433025,0.71380456 1.2008809,0.81404964 0.967523388,1.01377359 C0.733924184,1.21375295 0.617305854,1.46174778 0.617305854,1.7577581 C0.617305854,2.06423987 0.721718535,2.30827598 0.930543897,2.48999413 C1.13936926,2.67171228 1.53623412,2.82495317 2.12113849,2.94958909 C2.71571071,3.07946074 3.14701725,3.2638606 3.41493729,3.50253328 C3.68273648,3.74146136 3.81663608,4.06352263 3.81663608,4.46858937 C3.81663608,4.90481509 3.65687501,5.26199406 3.33747372,5.53961546 C3.01795158,5.81749227 2.60767258,5.95643067 2.10639504,5.95643067" id="Fill-9"></path>
                                <polyline id="Fill-10" points="5.89546355 5.87853322 5.89546355 0.425583994 6.25667826 0.425583994 8.328134 3.65053844 10.3995897 0.425583994 10.7608044 0.425583994 10.7608044 5.87853322 10.3774746 5.87853322 10.3774746 1.14236824 8.33550573 4.28163549 8.30601881 4.28163549 6.26404998 1.14236824 6.26404998 5.87853322 5.89546355 5.87853322"></polyline>
                                <path d="M14.1001975,3.98549748 L16.8203654,3.98549748 L15.4639673,0.830650736 L14.1001975,3.98549748 Z M12.8838623,5.87853322 L15.2870458,0.386762969 L15.6556323,0.386762969 L18.0588158,5.87853322 L17.6386273,5.87853322 L16.9825434,4.35174319 L13.9380195,4.35174319 L13.2819356,5.87853322 L12.8838623,5.87853322 Z" id="Fill-11"></path>
                                <path d="M20.5652035,3.25338914 L22.3049315,3.25338914 C22.7472352,3.25338914 23.1084499,3.14037399 23.3884547,2.91447138 C23.6687013,2.68856878 23.8087641,2.3809377 23.8087641,1.99132275 C23.8087641,1.62277842 23.67849,1.33187613 23.4179417,1.1188713 C23.1573933,0.905994171 22.7937617,0.799491756 22.3270467,0.799491756 L20.5652035,0.799491756 L20.5652035,3.25338914 Z M20.1818736,5.87853322 L20.1818736,0.425583994 L22.3491619,0.425583994 C22.9781757,0.425583994 23.4622929,0.60487583 23.8012715,0.963076401 C24.0618199,1.23852689 24.192094,1.58114797 24.192094,1.99132275 C24.192094,2.4327842 24.0544481,2.78600444 23.7792772,3.05085577 C23.5038646,3.3155794 23.1379368,3.48197346 22.6808896,3.54927175 L24.383759,5.87853322 L23.897104,5.87853322 L22.2533294,3.61937946 L20.5652035,3.61937946 L20.5652035,5.87853322 L20.1818736,5.87853322 Z" id="Fill-12"></path>
                                <polyline id="Fill-13" points="28.0031569 5.87853322 28.0031569 0.799491756 26.2044551 0.799491756 26.2044551 0.425583994 30.1851885 0.425583994 30.1851885 0.799491756 28.3864868 0.799491756 28.3864868 5.87853322 28.0031569 5.87853322"></polyline>
                                <polyline id="Fill-14" points="35.7287285 5.87853322 35.7287285 0.425583994 36.1119375 0.425583994 36.1119375 2.94958909 39.4145928 2.94958909 39.4145928 0.425583994 39.7978018 0.425583994 39.7978018 5.87853322 39.4145928 5.87853322 39.4145928 3.32349685 36.1119375 3.32349685 36.1119375 5.87853322 35.7287285 5.87853322"></polyline>
                                <polyline id="Fill-15" points="42.4148863 5.87853322 42.4148863 0.425583994 46.0858863 0.425583994 46.0858863 0.799491756 42.7982162 0.799491756 42.7982162 2.94179934 45.7547628 2.94179934 45.7547628 3.3155794 42.7982162 3.3155794 42.7982162 5.50462546 46.1233492 5.50462546 46.1233492 5.87853322 42.4148863 5.87853322"></polyline>
                                <path d="M48.5560197,5.50462546 L49.8901817,5.50462546 C50.5923087,5.50462546 51.1590858,5.28140457 51.5893047,4.83470739 C52.0183152,4.3881379 52.2334246,3.82714856 52.2334246,3.15212246 C52.2334246,2.48744011 52.0183152,1.92913249 51.5893047,1.47732727 C51.1590858,1.02552206 50.5923087,0.799491756 49.8901817,0.799491756 L48.5560197,0.799491756 L48.5560197,5.50462546 Z M48.171723,5.87853322 L48.171723,0.425583994 L49.8901817,0.425583994 C50.6962379,0.425583994 51.3536511,0.684050288 51.8648382,1.20072748 C52.3760253,1.71753236 52.6322231,2.36791222 52.6322231,3.15212246 C52.6322231,3.93109696 52.3748168,4.58032751 51.8612128,5.09955872 C51.3476087,5.61878992 50.6901955,5.87853322 49.8901817,5.87853322 L48.171723,5.87853322 Z" id="Fill-16"></path>
                                <path d="M57.1217266,5.97201016 C56.3301722,5.97201016 55.6993456,5.7020508 55.2304553,5.16174898 C54.761565,4.62183025 54.5271199,3.95191218 54.5271199,3.15212246 C54.5271199,2.38872744 54.7651904,1.72787612 55.2413316,1.1696962 C55.7186812,0.611516269 56.3301722,0.332234754 57.0770129,0.332234754 C57.4746028,0.332234754 57.8202281,0.3919987 58.1126803,0.511271189 C58.4051325,0.630926781 58.6891253,0.809963216 58.9646588,1.0487636 L58.7132949,1.35256365 C58.2419877,0.916337931 57.6885038,0.69822507 57.0552602,0.69822507 C56.4401439,0.69822507 55.9325822,0.937153152 55.5289499,1.41500931 C55.126526,1.89286548 54.9247098,2.47186062 54.9247098,3.15212246 C54.9247098,3.87388703 55.124109,4.46463065 55.521699,4.9242256 C55.9192889,5.38394826 56.4582711,5.61355419 57.1362284,5.61355419 C57.4455993,5.61355419 57.7465109,5.55519495 58.038963,5.43834878 C58.3314152,5.3215026 58.5779452,5.17222044 58.7797614,4.99050229 L58.7797614,3.42476353 L57.0552602,3.42476353 L57.0552602,3.05085577 L59.1483478,3.05085577 L59.1483478,5.15408693 C58.8933585,5.39301501 58.59003,5.58903565 58.2383623,5.74214883 C57.8866946,5.89538972 57.5144827,5.97201016 57.1217266,5.97201016" id="Fill-17"></path>
                                <polyline id="Fill-18" points="61.5665165 5.87853322 61.5665165 0.425583994 65.237879 0.425583994 65.237879 0.799491756 61.9496047 0.799491756 61.9496047 2.94179934 64.905547 2.94179934 64.905547 3.3155794 61.9496047 3.3155794 61.9496047 5.50462546 65.2741334 5.50462546 65.2741334 5.87853322 61.5665165 5.87853322"></polyline>
                                <polyline id="Fill-19" points="70.9576154 5.87853322 70.9576154 0.425583994 74.5927235 0.425583994 74.5927235 0.799491756 71.341912 0.799491756 71.341912 3.03527628 74.2603915 3.03527628 74.2603915 3.40918404 71.341912 3.40918404 71.341912 5.87853322 70.9576154 5.87853322"></polyline>
                                <path d="M78.9492943,5.96422042 C78.3148422,5.96422042 77.8036551,5.75913303 77.415733,5.34870286 C77.0278109,4.93852809 76.8332456,4.35953294 76.8332456,3.61171741 L76.8332456,0.425583994 L77.2163338,0.425583994 L77.2163338,3.57276869 C77.2163338,4.21152778 77.3710193,4.70892216 77.6815986,5.06456871 C77.9909696,5.42021527 78.417563,5.5979747 78.963796,5.5979747 C79.4991527,5.5979747 79.9197038,5.42800502 80.2242408,5.08781025 C80.5287778,4.74774318 80.6810463,4.25571224 80.6810463,3.61171741 L80.6810463,0.425583994 L81.0641345,0.425583994 L81.0641345,3.56485124 C81.0641345,4.32837396 80.8731946,4.91911757 80.4901064,5.33708209 C80.1058097,5.75517431 79.5922057,5.96422042 78.9492943,5.96422042" id="Fill-20"></path>
                                <polyline id="Fill-21" points="83.3348686 5.87853322 83.3348686 0.425583994 83.6962041 0.425583994 87.2563865 5.16966642 87.2563865 0.425583994 87.6249729 0.425583994 87.6249729 5.87853322 87.3373547 5.87853322 83.703455 1.03318411 83.703455 5.87853322 83.3348686 5.87853322"></polyline>
                                <path d="M90.3597634,5.50462546 L91.6939254,5.50462546 C92.3972609,5.50462546 92.964038,5.28140457 93.3930485,4.83470739 C93.8232674,4.3881379 94.0383768,3.82714856 94.0383768,3.15212246 C94.0383768,2.48744011 93.8232674,1.92913249 93.3930485,1.47732727 C92.964038,1.02552206 92.3972609,0.799491756 91.6939254,0.799491756 L90.3597634,0.799491756 L90.3597634,5.50462546 Z M89.9766752,5.87853322 L89.9766752,0.425583994 L91.6939254,0.425583994 C92.4999817,0.425583994 93.1586033,0.684050288 93.6697904,1.20072748 C94.1809775,1.71753236 94.4371753,2.36791222 94.4371753,3.15212246 C94.4371753,3.93109696 94.179769,4.58032751 93.666165,5.09955872 C93.1525609,5.61878992 92.4951478,5.87853322 91.6939254,5.87853322 L89.9766752,5.87853322 Z" id="Fill-22"></path>
                            </g>
                            <g id="Terofund">
                                <polyline id="Fill-1" points="3.45064427 10.2174565 3.45064427 0.762720823 0 0.762720823 0 0.0666666649 7.63667175 0.0666666649 7.63667175 0.762720823 4.18602748 0.762720823 4.18602748 10.2174565 3.45064427 10.2174565"></polyline>
                                <polyline id="Fill-2" points="12.186767 10.2710577 12.186767 0.120267867 19.2294754 0.120267867 19.2294754 0.816322025 12.9221502 0.816322025 12.9221502 4.8041323 18.5930861 4.8041323 18.5930861 5.50018646 12.9221502 5.50018646 12.9221502 9.57500351 19.3001853 9.57500351 19.3001853 10.2710577 12.186767 10.2710577"></polyline>
                                <path d="M24.423652,5.35070565 L27.555133,5.35070565 C28.3512493,5.35070565 29.0013931,5.13894945 29.5056614,4.71553637 C30.0098329,4.29222261 30.2618702,3.71545513 30.2618702,2.98543258 C30.2618702,2.29434456 30.0273651,1.74936038 29.5587423,1.35018206 C29.0897321,0.951202383 28.4352294,0.751563562 27.5948468,0.751563562 L24.423652,0.751563562 L24.423652,5.35070565 Z M23.7336975,10.2710577 L23.7336975,0.0507419099 L27.6346575,0.0507419099 C28.766888,0.0507419099 29.6382667,0.386552285 30.2486968,1.05817303 C30.7173196,1.57415496 30.9518247,2.21657481 30.9518247,2.98543258 C30.9518247,3.81279147 30.7041462,4.47467859 30.2087893,4.97109392 C29.7133355,5.46750926 29.054474,5.77908487 28.2317204,5.90552279 L31.2968503,10.2710577 L30.4211128,10.2710577 L27.4622415,6.03692685 L24.423652,6.03692685 L24.423652,10.2710577 L23.7336975,10.2710577 Z" id="Fill-3"></path>
                                <path d="M37.3368339,8.36167623 C38.1468015,9.2360148 39.1577597,9.67283646 40.3703865,9.67283646 C41.5827227,9.67283646 42.5891283,9.24068298 43.3897002,8.37597871 C44.1898847,7.51157241 44.5899285,6.44732865 44.5899285,5.18354539 C44.5899285,3.93893142 44.1850416,2.8796538 43.3754614,2.00531522 C42.5655906,1.13127461 41.5543418,0.694154985 40.3420056,0.694154985 C39.1293789,0.694154985 38.1230701,1.12670576 37.3226919,1.99111206 C36.52212,2.85581633 36.1220762,3.92006009 36.1220762,5.18354539 C36.1220762,6.42835799 36.52706,7.48763562 37.3368339,8.36167623 Z M43.9506333,8.81776651 C43.0130972,9.83453398 41.8100599,10.3427687 40.3420056,10.3427687 C38.8736608,10.3427687 37.6754666,9.8368184 36.7472294,8.82491775 C35.8187984,7.8130171 35.3548251,6.59939185 35.3548251,5.18354539 C35.3548251,3.77753188 35.8237384,2.56609173 36.7614682,1.54922494 C37.6992949,0.532755441 38.9020416,0.024322046 40.3703865,0.024322046 C41.8385376,0.024322046 43.0366349,0.530272371 43.9651628,1.54217302 C44.8931094,2.55407367 45.3570828,3.76789757 45.3570828,5.18354539 C45.3570828,6.58975754 44.8882663,7.80129701 43.9506333,8.81776651 Z" id="Fill-4"></path>
                                <polyline id="Fill-5" points="49.4776309 10.3042315 49.4776309 0.070705792 56.5060036 0.070705792 56.5060036 0.772421349 50.2186322 0.772421349 50.2186322 4.96811424 55.8647711 4.96811424 55.8647711 5.66992912 50.2186322 5.66992912 50.2186322 10.3042315 49.4776309 10.3042315"></polyline>
                                <path d="M64.410017,10.3389945 C63.1595168,10.3389945 62.1511739,9.95868747 61.3849883,9.19797417 C60.6188027,8.43745952 60.2361942,7.36368077 60.2361942,5.97713453 L60.2361942,0.0701098552 L60.9926935,0.0701098552 L60.9926935,5.90502618 C60.9926935,7.0893512 61.2978117,8.01136472 61.9090167,8.67086809 C62.519253,9.33037146 63.3629289,9.66012315 64.4390758,9.66012315 C65.4958502,9.66012315 66.3240281,9.34487259 66.9255467,8.71407351 C67.5260968,8.0835724 67.8273404,7.17119319 67.8273404,5.97713453 L67.8273404,0.0701098552 L68.5828711,0.0701098552 L68.5828711,5.89052505 C68.5828711,7.3058749 68.2051057,8.40140535 67.4486064,9.17622248 C66.6930757,9.95143691 65.6798897,10.3389945 64.410017,10.3389945" id="Fill-6"></path>
                                <polyline id="Fill-7" points="73.2497261 10.2049087 73.2497261 0.0541188849 73.9432645 0.0541188849 80.7730682 8.88530601 80.7730682 0.0541188849 81.4801674 0.0541188849 81.4801674 10.2049087 80.9290175 10.2049087 73.9568253 1.18520689 73.9568253 10.2049087 73.2497261 10.2049087"></polyline>
                                <path d="M86.7272312,9.50885453 L89.2863493,9.50885453 C90.634681,9.50885453 91.7214828,9.09338727 92.5467548,8.26165817 C93.3710581,7.43042569 93.7836941,6.38634445 93.7836941,5.12951378 C93.7836941,3.89215039 93.3710581,2.85273732 92.5467548,2.0117712 C91.7214828,1.17070576 90.634681,0.750173043 89.2863493,0.750173043 L86.7272312,0.750173043 L86.7272312,9.50885453 Z M85.9920417,10.2049087 L85.9920417,0.0541188849 L89.2863493,0.0541188849 C90.8332499,0.0541188849 92.0963423,0.535139188 93.0765949,1.49698115 C94.0568475,2.45912108 94.5479425,3.66986597 94.5479425,5.12951378 C94.5479425,6.57962661 94.0549103,7.7881864 93.0698145,8.75479586 C92.0847187,9.72160396 90.8235636,10.2049087 89.2863493,10.2049087 L85.9920417,10.2049087 Z" id="Fill-8"></path>
                            </g>
                        </g>
                        <g id="oval">
                            <path d="M19.6123229,22.1076292 C18.3997264,22.1076292 17.4167663,21.1004058 17.4167663,19.8578776 C17.4167663,18.6154397 18.3997264,17.6081259 19.6123229,17.6081259 C20.8249194,17.6081259 21.8078795,18.6154397 21.8078795,19.8578776 C21.8078795,21.1004058 20.8249194,22.1076292 19.6123229,22.1076292" id="Fill-23" fill="#455074"></path>
                            <path d="M19.6123229,22.1076292 C18.3997264,22.1076292 17.4167663,21.1004058 17.4167663,19.8578776 C17.4167663,18.6154397 18.3997264,17.6081259 19.6123229,17.6081259 C20.8249194,17.6081259 21.8078795,18.6154397 21.8078795,19.8578776 C21.8078795,21.1004058 20.8249194,22.1076292 19.6123229,22.1076292 Z" id="Stroke-24" stroke="#455074" stroke-width="0.967680081"></path>
                            <path d="M10.4816766,26.54483 C9.44152775,25.906365 9.10332956,24.5246043 9.72650246,23.4586901 C10.3495873,22.3927759 11.6980622,22.0464103 12.7382111,22.6848752 C13.7784481,23.3233402 14.1165582,24.7050106 13.4934734,25.7710151 C12.8703005,26.836839 11.5219137,27.183295 10.4816766,26.54483" id="Fill-25" fill="#455074"></path>
                            <path d="M10.4816766,26.54483 C9.44152775,25.906365 9.10332956,24.5246043 9.72650246,23.4586901 C10.3495873,22.3927759 11.6980622,22.0464103 12.7382111,22.6848752 C13.7784481,23.3233402 14.1165582,24.7050106 13.4934734,25.7710151 C12.8703005,26.836839 11.5219137,27.183295 10.4816766,26.54483 Z" id="Stroke-26" stroke="#455074" stroke-width="0.967680081"></path>
                            <path d="M10.723209,37.8963421 C9.51061253,37.8963421 8.52765244,36.8890284 8.52765244,35.6465905 C8.52765244,34.4040623 9.51061253,33.3968388 10.723209,33.3968388 C11.9357174,33.3968388 12.9187656,34.4040623 12.9187656,35.6465905 C12.9187656,36.8890284 11.9357174,37.8963421 10.723209,37.8963421" id="Fill-27" fill="#455074"></path>
                            <path d="M10.723209,37.8963421 C9.51061253,37.8963421 8.52765244,36.8890284 8.52765244,35.6465905 C8.52765244,34.4040623 9.51061253,33.3968388 10.723209,33.3968388 C11.9357174,33.3968388 12.9187656,34.4040623 12.9187656,35.6465905 C12.9187656,36.8890284 11.9357174,37.8963421 10.723209,37.8963421 Z" id="Stroke-28" stroke="#455074" stroke-width="0.967680081"></path>
                            <path d="M19.6194605,39.9999989 C18.406864,39.9999989 17.4239039,38.9927755 17.4239039,37.7502473 C17.4239039,36.5078094 18.406864,35.5004957 19.6194605,35.5004957 C20.832057,35.5004957 21.8150171,36.5078094 21.8150171,37.7502473 C21.8150171,38.9927755 20.832057,39.9999989 19.6194605,39.9999989" id="Fill-30" fill="#455074"></path>
                            <path d="M19.6194605,39.9999989 C18.406864,39.9999989 17.4239039,38.9927755 17.4239039,37.7502473 C17.4239039,36.5078094 18.406864,35.5004957 19.6194605,35.5004957 C20.832057,35.5004957 21.8150171,36.5078094 21.8150171,37.7502473 C21.8150171,38.9927755 20.832057,39.9999989 19.6194605,39.9999989 Z" id="Stroke-31" stroke="#455074" stroke-width="0.967680081"></path>
                            <path d="M18.4661676,31.1275838 C17.4259306,30.4890285 17.0878205,29.1073581 17.7109053,28.041444 C18.3340782,26.9755298 19.6824651,26.6290738 20.7227021,27.2676291 C21.7629391,27.9060941 22.1010492,29.2878548 21.4778763,30.3536787 C20.8547915,31.4195928 19.5064046,31.7660488 18.4661676,31.1275838" id="Fill-33" fill="#455074"></path>
                            <path d="M18.4661676,31.1275838 C17.4259306,30.4890285 17.0878205,29.1073581 17.7109053,28.041444 C18.3340782,26.9755298 19.6824651,26.6290738 20.7227021,27.2676291 C21.7629391,27.9060941 22.1010492,29.2878548 21.4778763,30.3536787 C20.8547915,31.4195928 19.5064046,31.7660488 18.4661676,31.1275838 Z" id="Stroke-34" stroke="#455074" stroke-width="0.967680081"></path>
                            <path d="M28.1676445,37.8963421 C26.955048,37.8963421 25.9720879,36.8890284 25.9720879,35.6465905 C25.9720879,34.4040623 26.955048,33.3968388 28.1676445,33.3968388 C29.380241,33.3968388 30.3632011,34.4040623 30.3632011,35.6465905 C30.3632011,36.8890284 29.380241,37.8963421 28.1676445,37.8963421" id="Fill-35" fill="#455074"></path>
                            <path d="M28.1676445,37.8963421 C26.955048,37.8963421 25.9720879,36.8890284 25.9720879,35.6465905 C25.9720879,34.4040623 26.955048,33.3968388 28.1676445,33.3968388 C29.380241,33.3968388 30.3632011,34.4040623 30.3632011,35.6465905 C30.3632011,36.8890284 29.380241,37.8963421 28.1676445,37.8963421 Z" id="Stroke-36" stroke="#455074" stroke-width="0.967680081"></path>
                            <path d="M34.668487,31.2104732 C33.4558905,31.2104732 32.4729304,30.2031595 32.4729304,28.9607216 C32.4729304,27.7181934 33.4558905,26.7109699 34.668487,26.7109699 C35.8809953,26.7109699 36.8640435,27.7181934 36.8640435,28.9607216 C36.8640435,30.2031595 35.8809953,31.2104732 34.668487,31.2104732" id="Fill-38" fill="#455074"></path>
                            <path d="M34.668487,31.2104732 C33.4558905,31.2104732 32.4729304,30.2031595 32.4729304,28.9607216 C32.4729304,27.7181934 33.4558905,26.7109699 34.668487,26.7109699 C35.8809953,26.7109699 36.8640435,27.7181934 36.8640435,28.9607216 C36.8640435,30.2031595 35.8809953,31.2104732 34.668487,31.2104732 Z" id="Stroke-39" stroke="#455074" stroke-width="0.967680081"></path>
                            <path d="M2.19555658,22.1115118 C0.982960092,22.1115118 0,21.1042884 0,19.8617602 C0,18.619232 0.982960092,17.6120086 2.19555658,17.6120086 C3.40815307,17.6120086 4.39111316,18.619232 4.39111316,19.8617602 C4.39111316,21.1042884 3.40815307,22.1115118 2.19555658,22.1115118" id="Fill-40" fill="#455074"></path>
                            <path d="M2.19555658,22.1115118 C0.982960092,22.1115118 0,21.1042884 0,19.8617602 C0,18.619232 0.982960092,17.6120086 2.19555658,17.6120086 C3.40815307,17.6120086 4.39111316,18.619232 4.39111316,19.8617602 C4.39111316,21.1042884 3.40815307,22.1115118 2.19555658,22.1115118 Z" id="Stroke-41" stroke="#455074" stroke-width="0.967680081"></path>
                            <path d="M4.55060736,13.3534985 C3.33801087,13.3534985 2.35496266,12.3462751 2.35496266,11.1038372 C2.35496266,9.86130899 3.33801087,8.85408554 4.55060736,8.85408554 C5.76311573,8.85408554 6.74607582,9.86130899 6.74607582,11.1038372 C6.74607582,12.3462751 5.76311573,13.3534985 4.55060736,13.3534985" id="Fill-43" fill="#455074"></path>
                            <path d="M4.55060736,13.3534985 C3.33801087,13.3534985 2.35496266,12.3462751 2.35496266,11.1038372 C2.35496266,9.86130899 3.33801087,8.85408554 4.55060736,8.85408554 C5.76311573,8.85408554 6.74607582,9.86130899 6.74607582,11.1038372 C6.74607582,12.3462751 5.76311573,13.3534985 4.55060736,13.3534985 Z" id="Stroke-44" stroke="#455074" stroke-width="0.967680081"></path>
                            <path d="M10.5508495,16.9875391 C9.51061253,16.3489838 9.17250246,14.9673134 9.79567536,13.9013992 C10.4187602,12.835485 11.767147,12.489029 12.807384,13.1275843 C13.847621,13.7660493 14.1857311,15.1477197 13.5626463,16.2136339 C12.9394734,17.2795481 11.5910866,17.626004 10.5508495,16.9875391" id="Fill-46" fill="#455074"></path>
                            <path d="M10.5508495,16.9875391 C9.51061253,16.3489838 9.17250246,14.9673134 9.79567536,13.9013992 C10.4187602,12.835485 11.767147,12.489029 12.807384,13.1275843 C13.847621,13.7660493 14.1857311,15.1477197 13.5626463,16.2136339 C12.9394734,17.2795481 11.5910866,17.626004 10.5508495,16.9875391 Z" id="Stroke-47" stroke="#455074" stroke-width="0.967680081"></path>
                            <path d="M4.59678137,31.1915116 C3.38418488,31.1915116 2.40122479,30.1842881 2.40122479,28.9418502 C2.40122479,27.6993221 3.38418488,26.6920986 4.59678137,26.6920986 C5.80937786,26.6920986 6.79233795,27.6993221 6.79233795,28.9418502 C6.79233795,30.1842881 5.80937786,31.1915116 4.59678137,31.1915116" id="Fill-48" fill="#455074"></path>
                            <path d="M4.59678137,31.1915116 C3.38418488,31.1915116 2.40122479,30.1842881 2.40122479,28.9418502 C2.40122479,27.6993221 3.38418488,26.6920986 4.59678137,26.6920986 C5.80937786,26.6920986 6.79233795,27.6993221 6.79233795,28.9418502 C6.79233795,30.1842881 5.80937786,31.1915116 4.59678137,31.1915116 Z" id="Stroke-49" stroke="#455074" stroke-width="0.967680081"></path>
                            <path d="M28.6186342,13.1587355 C29.6570207,13.8057784 29.9899318,15.1876294 29.3623529,16.2453269 C28.734686,17.3030244 27.3840962,17.6359363 26.3457978,16.9889837 C25.3074113,16.3419409 24.9745002,14.9600899 25.602079,13.9023924 C26.2297459,12.8446949 27.5803357,12.511783 28.6186342,13.1587355" id="Fill-51" fill="#455074"></path>
                            <path d="M28.6186342,13.1587355 C29.6570207,13.8057784 29.9899318,15.1876294 29.3623529,16.2453269 C28.734686,17.3030244 27.3840962,17.6359363 26.3457978,16.9889837 C25.3074113,16.3419409 24.9745002,14.9600899 25.602079,13.9023924 C26.2297459,12.8446949 27.5803357,12.511783 28.6186342,13.1587355 Z" id="Stroke-52" stroke="#455074" stroke-width="0.967680081"></path>
                            <path d="M28.1952255,2.17896157 C29.4104656,2.18717827 30.3891079,3.19738141 30.3810891,4.43521433 C30.3730703,5.67304725 29.3814746,6.66979666 28.1662346,6.66148967 C26.9509946,6.65327296 25.9723523,5.64316012 25.980371,4.4053272 C25.9883017,3.16749427 26.9799855,2.17074486 28.1952255,2.17896157" id="Fill-53" fill="#455074"></path>
                            <path d="M28.1952255,2.17896157 C29.4104656,2.18717827 30.3891079,3.19738141 30.3810891,4.43521433 C30.3730703,5.67304725 29.3814746,6.66979666 28.1662346,6.66148967 C26.9509946,6.65327296 25.9723523,5.64316012 25.980371,4.4053272 C25.9883017,3.16749427 26.9799855,2.17074486 28.1952255,2.17896157 Z" id="Stroke-54" stroke="#455074" stroke-width="0.967680081"></path>
                            <path d="M19.6286248,0.0808126389 C20.8438648,0.089029343 21.8225071,1.09914218 21.8144883,2.33697511 C21.8064696,3.57480803 20.8148739,4.57155744 19.5996338,4.56334074 C18.3843938,4.55512403 17.4057515,3.5449209 17.4137703,2.30708798 C17.4217891,1.06925505 18.4133847,0.0725056414 19.6286248,0.0808126389" id="Fill-56" fill="#455074"></path>
                            <path d="M19.6286248,0.0808126389 C20.8438648,0.089029343 21.8225071,1.09914218 21.8144883,2.33697511 C21.8064696,3.57480803 20.8148739,4.57155744 19.5996338,4.56334074 C18.3843938,4.55512403 17.4057515,3.5449209 17.4137703,2.30708798 C17.4217891,1.06925505 18.4133847,0.0725056414 19.6286248,0.0808126389 Z" id="Stroke-57" stroke="#455074" stroke-width="0.967680081"></path>
                            <path d="M20.7166219,8.57246027 C21.7549203,9.21941285 22.0879196,10.6013541 21.4602526,11.6590516 C20.8326738,12.7166588 19.482084,13.0495708 18.4436975,12.4026182 C17.405399,11.7556656 17.0723998,10.3738146 17.7000668,9.31611713 C18.3276456,8.25841965 19.6782354,7.92550769 20.7166219,8.57246027" id="Fill-59" fill="#455074"></path>
                            <path d="M20.7166219,8.57246027 C21.7549203,9.21941285 22.0879196,10.6013541 21.4602526,11.6590516 C20.8326738,12.7166588 19.482084,13.0495708 18.4436975,12.4026182 C17.405399,11.7556656 17.0723998,10.3738146 17.7000668,9.31611713 C18.3276456,8.25841965 19.6782354,7.92550769 20.7166219,8.57246027 Z" id="Stroke-60" stroke="#455074" stroke-width="0.967680081"></path>
                            <path d="M11.0798239,2.21733628 C12.295064,2.22555299 13.2737063,3.23566583 13.2656875,4.47349875 C13.2576687,5.71133168 12.266073,6.70817138 11.050833,6.69986438 C9.83559297,6.69164768 8.85695068,5.68144454 8.86496945,4.44370191 C8.8729001,3.20586899 9.8645839,2.20902929 11.0798239,2.21733628" id="Fill-61" fill="#455074"></path>
                            <path d="M11.0798239,2.21733628 C12.295064,2.22555299 13.2737063,3.23566583 13.2656875,4.47349875 C13.2576687,5.71133168 12.266073,6.70817138 11.050833,6.69986438 C9.83559297,6.69164768 8.85695068,5.68144454 8.86496945,4.44370191 C8.8729001,3.20586899 9.8645839,2.20902929 11.0798239,2.21733628 Z" id="Stroke-62" stroke="#455074" stroke-width="0.967680081"></path>
                            <path d="M37.0790523,17.622302 C38.2942923,17.6305187 39.2729346,18.6407219 39.2649159,19.8785548 C39.2568971,21.1163877 38.2653014,22.1131371 37.0500614,22.1048301 C35.8348213,22.0966134 34.856179,21.0865006 34.8641978,19.8486676 C34.8722166,18.6108347 35.8638123,17.6140853 37.0790523,17.622302" id="Fill-64" fill="#455074"></path>
                            <path d="M37.0790523,17.622302 C38.2942923,17.6305187 39.2729346,18.6407219 39.2649159,19.8785548 C39.2568971,21.1163877 38.2653014,22.1131371 37.0500614,22.1048301 C35.8348213,22.0966134 34.856179,21.0865006 34.8641978,19.8486676 C34.8722166,18.6108347 35.8638123,17.6140853 37.0790523,17.622302 Z" id="Stroke-65" stroke="#455074" stroke-width="0.967680081"></path>
                            <path d="M28.5928155,22.7311958 C29.6311139,23.3781484 29.9641131,24.7599091 29.3364462,25.8176065 C28.7087792,26.875304 27.3582775,27.2083063 26.319891,26.5612634 C25.2815045,25.9142205 24.9485934,24.5324598 25.5762603,23.4747624 C26.2038391,22.4170649 27.554429,22.0841529 28.5928155,22.7311958" id="Fill-66" fill="#455074"></path>
                            <path d="M28.5928155,22.7311958 C29.6311139,23.3781484 29.9641131,24.7599091 29.3364462,25.8176065 C28.7087792,26.875304 27.3582775,27.2083063 26.319891,26.5612634 C25.2815045,25.9142205 24.9485934,24.5324598 25.5762603,23.4747624 C26.2038391,22.4170649 27.554429,22.0841529 28.5928155,22.7311958 Z" id="Stroke-67" stroke="#455074" stroke-width="0.967680081"></path>
                            <path d="M34.6891948,8.84063182 C35.9044348,8.84884852 36.8830771,9.85896136 36.8750583,11.0967943 C36.8671277,12.3346272 35.8754439,13.3313766 34.6602038,13.3231599 C33.4449638,13.3148529 32.4664096,12.3047401 32.4743403,11.0669072 C32.482359,9.82907423 33.4740429,8.83232482 34.6891948,8.84063182" id="Fill-68" fill="#455074"></path>
                            <path d="M34.6891948,8.84063182 C35.9044348,8.84884852 36.8830771,9.85896136 36.8750583,11.0967943 C36.8671277,12.3346272 35.8754439,13.3313766 34.6602038,13.3231599 C33.4449638,13.3148529 32.4664096,12.3047401 32.4743403,11.0669072 C32.482359,9.82907423 33.4740429,8.83232482 34.6891948,8.84063182 Z" id="Stroke-69" stroke="#455074" stroke-width="0.967680081"></path>
                        </g>
                    </g>
                </g>
            </g>
        </g>
    </g>
</svg>