<?xml version="1.0" encoding="UTF-8"?>
<svg width="129px" height="128px" viewBox="0 0 129 128" version="1.1" xmlns="http://www.w3.org/2000/svg" xmlns:xlink="http://www.w3.org/1999/xlink">
    <!-- Generator: Sketch 49.3 (51167) - http://www.bohemiancoding.com/sketch -->
    <title>Bitcoin Logo</title>
    <desc>Created with Sketch.</desc>
    <defs></defs>
    <g id="Landing" stroke="none" stroke-width="1" fill="none" fill-rule="evenodd" opacity="0.900000036">
        <g id="Analytics-reviews" transform="translate(-349.000000, -339.000000)" fill-rule="nonzero">
            <g id="Bitcoin-Logo" transform="translate(413.500000, 403.000000) rotate(-14.000000) translate(-413.500000, -403.000000) translate(349.000000, 339.000000)">
                <g id="Group">
                    <ellipse id="Oval" fill="#C3C9D5" cx="64.5" cy="64" rx="64.5" ry="64"></ellipse>
                    <path d="M46.5133982,31.1887324 C48.7335172,31.7971831 50.9536362,32.2028169 53.1737552,32.8112676 C55.3938743,33.4197183 57.6139933,33.8253521 59.8341123,34.4338028 C60.4395993,34.6366197 60.6414283,34.4338028 60.8432573,33.8253521 C61.6505734,30.3774648 62.4578894,27.1323944 63.2652054,23.684507 C63.4670344,23.0760563 63.6688634,22.8732394 64.2743504,23.0760563 C66.2926404,23.684507 68.1091014,24.0901408 70.1273915,24.4957746 C70.7328785,24.6985915 70.7328785,24.9014085 70.5310495,25.3070423 C69.7237335,28.5521127 68.9164174,32 68.1091014,35.2450704 C68.1091014,35.4478873 68.1091014,35.6507042 67.9072724,36.056338 C69.5219045,36.4619718 71.3383655,36.8676056 72.9529975,37.2732394 C73.1548265,37.2732394 73.3566555,36.8676056 73.5584845,36.6647887 C74.1639715,34.028169 74.7694585,31.5943662 75.5767745,28.9577465 C75.7786035,28.1464789 75.9804325,27.3352113 76.1822615,26.5239437 C76.1822615,26.1183099 76.3840905,25.915493 76.7877485,26.1183099 C78.8060386,26.7267606 80.8243286,27.1323944 83.0444476,27.7408451 C83.2462766,27.7408451 83.2462766,27.943662 83.4481056,27.943662 C82.8426186,30.5802817 82.2371316,33.0140845 81.6316446,35.4478873 C81.4298156,36.4619718 81.2279866,37.4760563 80.8243286,38.4901408 C80.6224996,39.0985915 80.8243286,39.3014085 81.4298156,39.5042254 C83.6499346,40.5183099 85.8700537,41.5323944 88.0901727,42.5464789 C90.1084627,43.7633803 91.9249237,45.3859155 93.3377268,47.4140845 C95.1541878,50.456338 95.3560168,53.7014085 94.5487008,56.9464789 C93.9432138,59.1774648 93.1358978,61.2056338 91.5212657,62.828169 C90.3102917,64.0450704 88.6956597,64.856338 87.0810277,65.4647887 C86.8791987,65.4647887 86.6773697,65.6676056 86.2737117,65.6676056 C87.0810277,66.2760563 87.8883437,66.6816901 88.6956597,67.2901408 C91.1176077,69.115493 92.7322397,71.3464789 93.5395558,74.1859155 C93.9432138,76.4169014 93.7413848,78.8507042 93.1358978,81.0816901 C92.3285817,83.9211268 91.3194367,86.3549296 89.5029757,88.5859155 C87.2828567,91.2225352 84.4572506,92.6422535 81.2279866,93.0478873 C76.9895775,93.656338 72.9529975,93.2507042 68.9164174,92.6422535 C68.3109304,92.4394366 67.9072724,92.6422535 67.7054434,93.2507042 C66.8981274,96.4957746 66.0908114,99.943662 65.2834954,103.188732 C65.0816664,104 65.0816664,104.202817 64.0725214,103.797183 C62.2560604,103.391549 60.2377703,102.783099 58.4213093,102.377465 C57.8158223,102.174648 57.8158223,101.971831 58.0176513,101.566197 C58.8249673,98.1183099 59.6322833,94.6704225 60.6414283,91.4253521 C60.6414283,91.0197183 60.8432573,90.8169014 60.4395993,90.6140845 C58.8249673,90.2084507 57.2103353,89.8028169 55.3938743,89.3971831 C54.9902163,91.2225352 54.3847293,93.0478873 53.9810713,94.8732394 C53.5774132,96.6985915 52.9719262,98.5239437 52.5682682,100.349296 C52.3664392,100.75493 52.3664392,100.957746 51.7609522,100.75493 C49.7426622,100.146479 47.7243722,99.7408451 45.7060821,99.3352113 C45.1005951,99.1323944 45.1005951,98.9295775 45.3024241,98.5239437 C46.1097402,95.0760563 46.9170562,91.628169 47.9262012,88.3830986 C47.9262012,88.1802817 48.1280302,87.9774648 48.1280302,87.571831 C43.4859631,86.3549296 38.8438961,85.1380282 34,83.9211268 C34.403658,83.1098592 34.605487,82.5014085 35.009145,81.6901408 C35.816461,79.8647887 36.623777,78.0394366 37.229264,76.4169014 C37.431093,75.8084507 37.632922,75.8084507 38.2384091,75.8084507 C39.6512121,76.2140845 41.2658441,76.6197183 42.6786471,76.8225352 C44.2932791,77.228169 45.5042531,76.4169014 45.7060821,74.9971831 C48.3298592,64.6535211 50.9536362,54.3098592 53.3755842,43.7633803 C53.7792423,42.1408451 52.7700972,40.315493 50.9536362,39.7070423 C49.1371752,39.0985915 47.3207142,38.6929577 45.7060821,38.2873239 C45.3024241,38.2873239 45.1005951,38.084507 45.3024241,37.6788732 C45.9079112,35.4478873 46.5133982,33.0140845 47.1188852,30.7830986 C46.3115692,31.3915493 46.3115692,31.3915493 46.5133982,31.1887324 Z M56.8066773,81.284507 C57.0085063,81.284507 57.2103353,81.4873239 57.2103353,81.4873239 C60.4395993,82.2985915 63.8706924,83.3126761 67.3017854,83.515493 C69.7237335,83.7183099 71.9438525,83.7183099 74.1639715,82.9070423 C77.9987226,81.6901408 79.6133546,76.6197183 77.3932356,73.3746479 C76.3840905,71.7521127 74.7694585,70.7380282 73.1548265,69.7239437 C69.5219045,67.6957746 65.2834954,66.884507 61.2469153,66.0732394 C60.6414283,65.8704225 60.6414283,66.0732394 60.4395993,66.6816901 C60.0359413,68.7098592 59.4304543,70.5352113 59.0267963,72.5633803 C58.2194803,75.4028169 57.6139933,78.2422535 56.8066773,81.284507 Z M73.7603135,60.5971831 C74.1639715,60.5971831 75.1731165,60.3943662 75.9804325,60.1915493 C79.8151836,59.3802817 81.8334736,54.9183099 79.8151836,51.4704225 C78.8060386,49.6450704 76.9895775,48.428169 75.1731165,47.6169014 C72.3475105,46.4 69.5219045,45.7915493 66.4944694,44.9802817 C65.8889824,44.7774648 65.6871534,44.9802817 65.4853244,45.5887324 C64.4761794,49.8478873 63.4670344,53.9042254 62.2560604,58.1633803 C62.0542314,58.5690141 62.2560604,58.771831 62.6597184,58.9746479 C63.4670344,59.1774648 64.0725214,59.3802817 64.8798374,59.5830986 C67.9072724,59.9887324 70.5310495,60.5971831 73.7603135,60.5971831 Z" id="Shape" fill="#FFFFFF"></path>
                </g>
            </g>
        </g>
    </g>
</svg>