<?xml version="1.0" encoding="UTF-8"?>
<svg width="1440px" height="778px" viewBox="0 0 1440 778" version="1.1" xmlns="http://www.w3.org/2000/svg" xmlns:xlink="http://www.w3.org/1999/xlink">
    <!-- Generator: Sketch 49.3 (51167) - http://www.bohemiancoding.com/sketch -->
    <title>Background</title>
    <desc>Created with Sketch.</desc>
    <defs></defs>
    <g id="Landing" stroke="none" stroke-width="1" fill="none" fill-rule="evenodd">
        <g id="Landing-black-finish">
            <g id="Main" transform="translate(-1.000000, 0.000000)">
                <g id="Background">
                    <path d="M1,0 L1441,0 L1441,755.9205 C1255.10938,696.414708 1112.29427,669.415408 1012.55469,674.922598 C715.124821,691.345395 682.131816,761.243839 420.234375,771.941891 C259.776042,778.496334 120.03125,754.599712 1,700.252027 L1,0 Z" id="Bg" fill="#1D2343"></path>
                    <path d="M1047,671.050983 C1131.83045,643.632128 1280.08318,629.235769 1440,656.942629 L1440,755 C1272.17211,703.343685 1141.17211,675.360679 1047,671.050983 Z" id="Path-4" fill="#FF3C54" opacity="0.200000003"></path>
                    <path d="M101,738.230466 C278.413333,698.236291 427.147877,673.961957 547.203633,665.407464 C667.259389,656.852971 811.524845,660.751106 980,677.101869 C932.069965,678.392987 811.303266,701.451844 617.699903,746.278438 C424.096539,791.105033 251.863238,788.422375 101,738.230466 Z" id="Path-3" fill="#FF3C54" opacity="0.100000001"></path>
                    <path d="M0,607 C90.7283404,608.13895 147.912752,640.385175 291.910178,680.568289 C387.908462,707.357032 543.605069,716.697861 759,708.590776 C469.336065,798.871153 216.336065,795.695142 0,699.06274" id="Path-2" fill="#FF3C54" opacity="0.100000001"></path>
                </g>
            </g>
        </g>
    </g>
</svg>