<?xml version="1.0" encoding="UTF-8"?>
<svg width="20px" height="16px" viewBox="0 0 20 16" version="1.1" xmlns="http://www.w3.org/2000/svg" xmlns:xlink="http://www.w3.org/1999/xlink">
    <!-- Generator: Sketch 49.3 (51167) - http://www.bohemiancoding.com/sketch -->
    <title>mail</title>
    <desc>Created with Sketch.</desc>
    <defs>
        <path d="M19.1668092,4.99829112 C19.1668097,4.99870678 19.1668099,4.99912244 19.1668097,4.99953809 C19.1668098,4.99969205 19.1668098,4.99984603 19.1668098,5 L19.1668098,15 C19.1668098,16.376904 18.043705,17.5 16.6667903,17.5 L3.33335285,17.5 C1.95643814,17.5 0.833333333,16.376904 0.833333333,15 L0.833333333,5 C0.833333333,4.99984603 0.833333347,4.99969205 0.833333375,4.99953809 C0.833333243,4.99912244 0.833333422,4.99870678 0.83333391,4.99829112 C0.834262789,3.62216683 1.95700787,2.5 3.33335285,2.5 L16.6667903,2.5 C18.0431352,2.5 19.1658803,3.62216683 19.1668092,4.99829097 Z M17.4112571,4.6282905 C17.2734403,4.35576935 16.9900392,4.16666667 16.6667382,4.16666667 L3.33340489,4.16666667 C3.01010386,4.16666667 2.72670284,4.35576935 2.58888603,4.6282905 L10.0000716,9.81612037 L17.4112571,4.6282905 Z M17.5000716,6.6005463 L10.4779568,11.5160266 C10.1910234,11.71688 9.80911972,11.71688 9.52218626,11.5160266 L2.50007155,6.6005463 L2.50007155,15 C2.50007155,15.4564294 2.87697551,15.8333333 3.33340489,15.8333333 L16.6667382,15.8333333 C17.1231676,15.8333333 17.5000716,15.4564294 17.5000716,15 L17.5000716,6.6005463 Z" id="path-1"></path>
    </defs>
    <g id="Fund" stroke="none" stroke-width="1" fill="none" fill-rule="evenodd">
        <g id="Affiliate-Binary-white-Notification" transform="translate(-718.000000, -568.000000)">
            <g id="Notification" transform="translate(694.000000, 356.000000)">
                <g id="Group-9" transform="translate(0.000000, 188.000000)">
                    <g id="mail" transform="translate(24.000000, 22.000000)">
                        <mask id="mask-2" fill="white">
                            <use xlink:href="#path-1"></use>
                        </mask>
                        <use id="Combined-Shape" fill="#000000" fill-rule="nonzero" xlink:href="#path-1"></use>
                        <g id="Blue" mask="url(#mask-2)" fill="#455074" fill-rule="evenodd">
                            <path d="M0,0 L20,0 L20,20 L0,20 L0,0 Z" id="Black-Blue"></path>
                        </g>
                    </g>
                </g>
            </g>
        </g>
    </g>
</svg>