<?xml version="1.0" encoding="UTF-8"?>
<svg width="338px" height="338px" viewBox="0 0 338 338" version="1.1" xmlns="http://www.w3.org/2000/svg" xmlns:xlink="http://www.w3.org/1999/xlink">
    <!-- Generator: Sketch 49.3 (51167) - http://www.bohemiancoding.com/sketch -->
    <title>Group 3</title>
    <desc>Created with Sketch.</desc>
    <defs></defs>
    <g id="Landing" stroke="none" stroke-width="1" fill="none" fill-rule="evenodd">
        <g id="Analytics-reviews" transform="translate(-982.000000, -234.000000)">
            <g id="3" transform="translate(980.000000, 234.000000)">
                <g id="Group-3" transform="translate(2.000000, 0.000000)">
                    <rect id="Rectangle-3-Copy-2" fill="#2A3156" x="0" y="0" width="338" height="338" rx="10"></rect>
                    <g id="Litecoin" transform="translate(113.000000, 113.000000)" fill-rule="nonzero">
                        <g id="Group">
                            <path d="M56.684749,112.696744 C25.7017806,112.52093 0.880197967,87.7311628 1.05623756,56.9637209 C1.05623756,26.0204651 26.2298994,1.23069767 57.0368282,1.40651163 C88.0197967,1.58232558 112.841379,26.547907 112.66534,57.3153488 C112.313261,88.0827907 87.3156383,112.872558 56.684749,112.696744 Z M107.208112,57.1395349 C107.208112,29.1851163 84.6750444,6.68093023 56.684749,6.68093023 C28.8704933,6.68093023 6.33742536,29.1851163 6.33742536,56.9637209 C6.33742536,84.9181395 28.8704933,107.422326 56.8607886,107.422326 C84.6750444,107.422326 107.208112,84.9181395 107.208112,57.1395349 Z" id="Shape" fill="#C0C0C0"></path>
                            <path d="M99.6384098,57.1395349 C99.2863306,80.8744186 80.098015,100.03814 56.5087095,99.8623256 C32.5673248,99.5106977 13.5550487,80.1711628 13.9071279,56.612093 C14.2592071,32.8772093 33.4475227,14.0651163 56.8607886,14.2409302 C80.6261337,14.4167442 99.6384098,33.5804651 99.6384098,57.1395349 Z M54.0441551,72.4353488 C54.0441551,72.2595349 54.0441551,72.0837209 54.0441551,71.907907 C55.2764323,67.1609302 56.3326699,62.5897674 57.564947,57.8427907 C57.7409866,57.4911628 58.0930658,56.9637209 58.6211846,56.787907 C59.8534617,56.2604651 61.0857389,55.7330233 62.318016,55.3813953 C65.1346495,54.6781395 66.7190059,53.095814 67.0710851,50.2827907 C67.2471246,49.052093 67.7752434,47.8213953 68.1273226,46.4148837 C65.1346495,47.6455814 62.4940556,48.7004651 59.6774221,49.7553488 C61.6138577,42.1953488 63.3742536,35.1627907 65.3106891,27.7786047 C64.7825703,27.7786047 64.4304912,27.7786047 64.078412,27.7786047 C59.1493034,27.7786047 54.2201947,27.7786047 49.2910861,27.7786047 C48.2348486,27.7786047 47.8827694,28.1302326 47.5306902,29.1851163 C45.0661359,38.3274419 42.6015816,47.4697674 40.1370273,56.612093 C39.9609877,57.1395349 39.4328689,57.6669767 39.0807897,57.8427907 C37.4964334,58.5460465 35.7360374,59.0734884 34.1516811,59.7767442 C33.7996019,59.9525581 33.2714831,60.1283721 33.2714831,60.304186 C32.5673248,62.5897674 31.8631664,65.0511628 30.9829684,67.6883721 C33.4475227,66.6334884 35.5599978,65.7544186 38.0245522,64.8753488 C36.4401958,71.0288372 34.8558395,77.0065116 33.2714831,82.984186 C36.792275,82.984186 40.1370273,82.984186 43.4817795,82.984186 C55.2764323,82.984186 66.8950455,82.984186 78.6896982,82.984186 C79.5698962,82.984186 79.9219754,82.8083721 80.098015,81.9293023 C80.4500941,80.1711628 80.9782129,78.4130233 81.5063317,76.8306977 C81.8584109,75.6 82.0344505,74.3693023 82.3865297,72.9627907 C72.8803916,72.7869767 63.5502932,72.6111628 54.0441551,72.4353488 Z" id="Shape" fill="#C0C0C0"></path>
                            <path d="M54.0441551,72.4353488 C63.5502932,72.6111628 72.8803916,72.7869767 82.3865297,73.1386047 C82.0344505,74.5451163 81.6823713,75.775814 81.5063317,77.0065116 C80.9782129,78.7646512 80.4500941,80.3469767 80.098015,82.1051163 C79.9219754,82.984186 79.5698962,83.16 78.6896982,83.16 C66.8950455,83.16 55.2764323,83.16 43.4817795,83.16 C40.1370273,83.16 36.792275,83.16 33.2714831,83.16 C34.8558395,77.0065116 36.4401958,71.2046512 38.0245522,65.0511628 C35.5599978,65.9302326 33.4475227,66.8093023 30.9829684,67.864186 C31.6871268,65.2269767 32.3912852,62.9413953 33.2714831,60.48 C33.2714831,60.1283721 33.7996019,59.9525581 34.1516811,59.9525581 C35.7360374,59.2493023 37.4964334,58.7218605 39.0807897,58.0186047 C39.6089085,57.8427907 40.1370273,57.3153488 40.1370273,56.787907 C42.6015816,47.6455814 45.0661359,38.5032558 47.5306902,29.3609302 C47.7067298,28.3060465 48.058809,27.9544186 49.2910861,27.9544186 C54.2201947,27.9544186 59.1493034,27.9544186 64.078412,27.9544186 C64.4304912,27.9544186 64.7825703,27.9544186 65.3106891,27.9544186 C63.3742536,35.1627907 61.6138577,42.3711628 59.6774221,49.9311628 C62.4940556,48.7004651 65.1346495,47.6455814 68.1273226,46.5906977 C67.7752434,47.9972093 67.2471246,49.227907 67.0710851,50.4586047 C66.7190059,53.2716279 65.1346495,54.8539535 62.318016,55.5572093 C61.0857389,55.9088372 59.8534617,56.4362791 58.6211846,56.9637209 C58.2691054,57.1395349 57.7409866,57.6669767 57.564947,58.0186047 C56.3326699,62.7655814 55.1003927,67.3367442 54.0441551,72.0837209 C54.0441551,72.0837209 54.0441551,72.2595349 54.0441551,72.4353488 Z" id="Shape" fill="#FFFFFF"></path>
                        </g>
                    </g>
                </g>
            </g>
        </g>
    </g>
</svg>