<?xml version="1.0" encoding="UTF-8"?>
<svg width="338px" height="338px" viewBox="0 0 338 338" version="1.1" xmlns="http://www.w3.org/2000/svg" xmlns:xlink="http://www.w3.org/1999/xlink">
    <!-- Generator: Sketch 49.3 (51167) - http://www.bohemiancoding.com/sketch -->
    <title>Group 2</title>
    <desc>Created with Sketch.</desc>
    <defs></defs>
    <g id="Landing" stroke="none" stroke-width="1" fill="none" fill-rule="evenodd">
        <g id="Analytics-reviews" transform="translate(-612.000000, -234.000000)">
            <g id="2" transform="translate(612.000000, 234.000000)">
                <g id="Group-2">
                    <rect id="Rectangle-3-Copy" fill="#FFFFFF" x="0" y="0" width="338" height="338" rx="10"></rect>
                    <g id="Etherium" transform="translate(113.000000, 77.000000)" fill-rule="nonzero">
                        <g id="Group">
                            <path d="M57.1307886,0.319510404 C57.1307886,0.319510404 57.1307886,0.319510404 57.1307886,0.319510404 C57.1307886,0.899388005 57.1307886,1.47926561 57.1307886,2.05914321 C57.1307886,23.5146144 57.1307886,45.2600245 57.1307886,66.7154957 C57.1307886,67.0054345 57.1307886,67.5853121 57.1307886,67.8752509 C57.1307886,68.1651897 56.8415807,68.4551285 56.5523728,68.4551285 C54.5279174,69.3249449 52.79267,70.1947613 50.7682147,71.0645777 C48.1653436,72.2243329 45.2732645,73.3840881 42.6703934,74.8337821 C39.4891065,76.2834761 36.3078195,77.7331701 33.1265326,79.1828641 C30.5236615,80.3426193 27.9207903,81.5023745 25.3179192,82.6621297 C22.1366323,84.1118237 18.9553453,85.5615177 15.7740584,87.0112118 C13.1711873,88.170967 10.5683161,89.3307222 7.6762371,90.7804162 C5.65178178,91.6502326 3.33811855,92.8099878 1.31366323,93.6798042 C1.02445532,93.6798042 1.02445532,93.969743 0.73524742,93.6798042 C0.73524742,93.6798042 0.73524742,93.6798042 0.446039516,93.6798042 C1.31366323,92.2301102 2.18128694,91.070355 3.04891065,89.620661 C7.6762371,81.7923133 12.5927715,73.9639657 17.2200979,66.1356181 C22.1366323,57.7273929 27.3423745,49.3191677 32.2589089,40.9109425 C36.8862353,33.0825949 41.5135618,25.2542472 46.1408882,17.7158384 C49.6113831,11.9170624 53.0818779,6.40822521 56.2631649,0.609449204 C56.8415807,0.609449204 56.8415807,0.319510404 57.1307886,0.319510404 C56.8415807,0.319510404 57.1307886,0.319510404 57.1307886,0.319510404 C57.1307886,0.319510404 57.1307886,0.319510404 57.1307886,0.319510404 Z" id="Shape" fill="#8A92B2"></path>
                            <path d="M113.237122,93.6798042 C113.237122,93.6798042 113.237122,93.6798042 113.237122,93.6798042 C108.899003,96.5791922 104.271677,99.1886414 99.9335582,101.798091 C85.762371,110.206316 71.8803916,118.324602 57.7092044,126.732827 C57.4199965,126.732827 57.4199965,127.022766 57.1307886,127.022766 C56.8415807,127.022766 56.8415807,126.732827 56.8415807,126.732827 C56.8415807,126.442889 56.8415807,126.15295 56.8415807,125.863011 C56.8415807,107.016989 56.8415807,88.170967 56.8415807,69.3249449 C56.8415807,69.0350061 56.8415807,68.7450673 56.8415807,68.4551285 C56.8415807,68.1651897 57.1307886,68.1651897 57.4199965,68.1651897 C58.5768281,68.7450673 59.7336597,69.3249449 61.1796992,69.9048225 C64.650194,71.6444553 68.4098968,73.0941493 71.8803916,74.8337821 C75.0616786,76.2834761 77.9537576,77.7331701 81.1350445,78.8929253 C84.3163315,80.3426193 87.2084105,81.7923133 90.3896974,83.2420073 C92.9925686,84.4017625 95.8846476,85.5615177 98.4875187,87.0112118 C101.09039,88.170967 103.982469,89.3307222 106.58534,90.7804162 C108.609795,91.6502326 110.634251,92.8099878 112.947914,93.6798042 C112.947914,93.3898654 112.947914,93.6798042 113.237122,93.6798042 Z" id="Shape" fill="#454A75"></path>
                            <path d="M57.1307886,183.850771 C57.1307886,183.850771 57.1307886,183.850771 57.1307886,183.850771 C57.1307886,183.850771 56.8415807,183.850771 57.1307886,183.850771 C56.8415807,183.850771 56.8415807,183.850771 56.5523728,183.560832 C50.7682147,175.442546 45.2732645,167.614198 39.4891065,159.495912 C33.7049484,151.377625 27.9207903,143.259339 22.1366323,135.141053 C16.6416821,127.312705 10.857524,119.484357 5.36257387,111.366071 C3.91653436,109.336499 2.47049484,107.306928 1.02445532,105.277356 C1.02445532,104.987417 0.73524742,104.987417 0.73524742,104.697479 C1.02445532,104.697479 1.02445532,104.987417 1.31366323,104.987417 C9.12227662,109.626438 17.2200979,114.265459 25.0287113,118.90448 C33.9941563,124.413317 43.2488092,129.632215 52.2142542,135.141053 C53.6602937,136.010869 55.3955411,136.880685 56.8415807,137.750502 C57.1307886,137.750502 57.1307886,138.040441 57.1307886,138.330379 C57.1307886,138.620318 57.1307886,138.910257 57.1307886,139.200196 C57.1307886,153.697136 57.1307886,167.904137 57.1307886,182.401077 C57.1307886,182.691016 57.1307886,183.270894 57.1307886,183.850771 Z" id="Shape" fill="#8A92B2"></path>
                            <path d="M0.73524742,93.6798042 C0.73524742,93.6798042 1.02445532,93.6798042 0.73524742,93.6798042 C1.02445532,93.6798042 1.02445532,93.6798042 0.73524742,93.6798042 C0.73524742,93.969743 0.73524742,93.969743 0.73524742,93.6798042 C0.73524742,93.6798042 0.73524742,93.6798042 0.73524742,93.6798042 C0.73524742,93.6798042 0.73524742,93.6798042 0.73524742,93.6798042 Z" id="Shape" fill="#808080"></path>
                            <path d="M1.02445532,93.969743 C1.02445532,93.6798042 1.02445532,93.6798042 1.02445532,93.969743 C3.91653436,92.520049 6.80861339,91.3602938 9.70069242,89.9105998 C13.4603952,88.170967 17.2200979,86.4313341 20.9798007,84.6917013 C23.8718797,83.2420073 26.7639587,82.0822521 29.6560377,80.6325581 C33.7049484,78.6029865 38.0430669,76.8633537 42.0919776,74.8337821 C44.9840566,73.6740269 47.8761357,72.2243329 50.7682147,71.0645777 C52.79267,70.1947613 54.8171253,69.3249449 56.8415807,68.1651897 C57.1307886,68.1651897 57.1307886,67.8752509 57.4199965,67.8752509 C57.4199965,67.8752509 57.4199965,67.8752509 57.4199965,68.1651897 C57.4199965,68.4551285 57.4199965,68.4551285 57.4199965,68.7450673 C57.4199965,87.8810282 57.4199965,107.016989 57.4199965,126.15295 C57.4199965,126.442889 57.4199965,126.732827 57.4199965,127.022766 C57.1307886,127.312705 57.1307886,127.022766 56.8415807,127.022766 C55.9739569,126.442889 55.1063332,126.15295 54.5279174,125.573072 C36.8862353,115.135275 19.2445532,104.697479 1.60287113,94.2596818 C1.31366323,93.969743 1.02445532,93.969743 1.02445532,93.969743 Z" id="Shape" fill="#62688F"></path>
                            <path d="M112.947914,104.697479 C112.947914,104.697479 112.947914,104.697479 112.947914,104.697479 C112.947914,104.987417 112.947914,104.987417 112.658706,105.277356 C95.8846476,129.052338 79.1105892,152.537381 62.3365308,176.312362 C60.6012834,178.921812 58.866036,181.241322 57.1307886,183.850771 C57.1307886,183.850771 57.1307886,183.850771 57.1307886,183.560832 C57.1307886,183.270894 57.1307886,183.270894 57.1307886,182.980955 C57.1307886,168.194076 57.1307886,153.407197 57.1307886,138.620318 C57.1307886,138.330379 57.1307886,138.040441 57.1307886,137.750502 C60.8904913,135.430991 64.650194,133.111481 68.4098968,131.081909 C83.1594999,122.383745 97.9091029,113.685581 112.658706,104.987417 C112.658706,104.697479 112.947914,104.697479 112.947914,104.697479 Z" id="Shape" fill="#62688F"></path>
                            <path d="M57.1307886,67.5853121 C57.1307886,45.5499633 57.1307886,23.2246756 57.1307886,1.18932681 C57.1307886,0.899388005 57.1307886,0.609449204 57.1307886,0.609449204 C75.6400944,31.3429621 94.1494002,62.0764749 112.658706,92.8099878 C112.947914,93.0999266 113.237122,93.3898654 113.237122,93.6798042 C112.08029,93.0999266 110.923459,92.520049 109.477419,91.9401714 C108.03138,91.3602938 106.58534,90.4904774 105.139301,89.9105998 C104.271677,89.620661 103.404053,89.0407834 102.247221,88.7508446 C100.801182,88.170967 99.0659345,87.3011506 97.619895,86.7212729 C96.7522713,86.4313341 95.8846476,85.8514565 95.0170239,85.5615177 C92.9925686,84.6917013 90.9681132,83.8218849 88.9436579,82.9520685 C87.7868263,82.3721909 86.9192026,82.0822521 85.762371,81.5023745 C84.3163315,80.9224969 82.870292,80.0526805 81.4242524,79.4728029 C80.5566287,79.1828641 79.689005,78.6029865 78.8213813,78.3130477 C76.796926,77.4432313 74.7724707,76.5734149 72.7480153,75.7035985 C71.5911837,75.1237209 70.72356,74.8337821 69.5667284,74.2539045 C68.1206889,73.6740269 66.6746494,72.8042105 65.2286099,72.2243329 C64.3609861,71.6444553 63.2041545,71.3545165 62.3365308,70.7746389 C60.6012834,69.9048225 58.866036,69.0350061 57.1307886,68.1651897 C57.1307886,67.8752509 57.1307886,67.5853121 57.1307886,67.5853121 Z" id="Shape" fill="#62688F"></path>
                        </g>
                    </g>
                </g>
            </g>
        </g>
    </g>
</svg>