<?xml version="1.0" encoding="UTF-8"?>
<svg width="215px" height="215px" viewBox="0 0 215 215" version="1.1" xmlns="http://www.w3.org/2000/svg" xmlns:xlink="http://www.w3.org/1999/xlink">
    <!-- Generator: Sketch 49.3 (51167) - http://www.bohemiancoding.com/sketch -->
    <title>Group 4</title>
    <desc>Created with Sketch.</desc>
    <defs></defs>
    <g id="Landing" stroke="none" stroke-width="1" fill="none" fill-rule="evenodd" opacity="0.600000024">
        <g id="Cryptocurrency" transform="translate(-1101.000000, -773.000000)">
            <g id="Group-3" transform="translate(365.000000, 773.000000)">
                <g id="4" transform="translate(735.000000, 0.000000)">
                    <g id="Group-4" transform="translate(1.000000, 0.000000)">
                        <rect id="Rectangle-3-Copy-2" fill="#FFFFFF" x="0" y="0" width="214.729412" height="214.191018" rx="10"></rect>
                        <g id="Dash" transform="translate(70.000000, 70.000000)" fill="#C3C9D5" fill-rule="nonzero">
                            <path d="M40,0 C17.9179811,0 0,17.9179811 0,40 C0,62.0820189 17.9179811,80 40,80 C62.0820189,80 80,62.0820189 80,40 C80,17.9179811 62.0820189,0 40,0 Z M16.0252366,43.2807571 C16.0252366,43.1545741 16.0252366,43.1545741 16.0252366,43.0283912 C16.4037855,42.0189274 16.7823344,41.0094637 17.1608833,39.873817 C17.5394322,38.8643533 17.7917981,37.8548896 18.170347,36.8454259 C18.29653,36.5930599 18.4227129,36.466877 18.6750789,36.466877 C24.2271293,36.466877 29.7791798,36.466877 35.3312303,36.466877 C35.4574132,36.466877 35.5835962,36.466877 35.7097792,36.466877 C35.7097792,36.5930599 35.5835962,36.8454259 35.5835962,36.9716088 C34.9526814,38.8643533 34.3217666,40.7570978 33.6908517,42.6498423 C33.5646688,43.0283912 33.4384858,43.1545741 32.9337539,43.1545741 C27.5078864,43.1545741 22.0820189,43.1545741 16.5299685,43.1545741 C16.4037855,43.2807571 16.1514196,43.2807571 16.0252366,43.2807571 Z M63.9747634,31.6719243 C62.3343849,36.7192429 60.6940063,41.7665615 59.0536278,46.9400631 C58.044164,50.0946372 53.7539432,54.2586751 49.0851735,54.1324921 C38.6119874,54.0063091 28.1388013,54.1324921 17.7917981,54.1324921 C17.5394322,54.1324921 17.4132492,54.1324921 17.1608833,54.1324921 C17.2870662,53.7539432 17.4132492,53.3753943 17.5394322,53.1230284 C18.170347,51.3564669 18.8012618,49.4637224 19.3059937,47.6971609 C19.4321767,47.192429 19.6845426,47.192429 20.0630915,47.192429 C29.5268139,47.192429 38.8643533,47.192429 48.3280757,47.192429 C48.7066246,47.192429 48.9589905,47.0662461 49.0851735,46.6876972 C50.4731861,42.2712934 51.9873817,37.8548896 53.3753943,33.4384858 C53.3753943,33.3123028 53.5015773,33.1861199 53.5015773,32.9337539 C43.659306,32.9337539 33.9432177,32.9337539 24.1009464,32.9337539 C24.1009464,32.681388 24.2271293,32.555205 24.2271293,32.4290221 C24.8580442,30.4100946 25.615142,28.3911672 26.2460568,26.3722397 C26.3722397,25.9936909 26.4984227,25.8675079 26.8769716,25.8675079 C37.4763407,25.8675079 48.0757098,25.8675079 58.6750789,25.8675079 C59.3059937,25.8675079 60.0630915,25.9936909 60.6940063,26.1198738 C62.4605678,26.7507886 63.4700315,28.0126183 63.8485804,29.7791798 C63.8485804,29.9053628 63.9747634,30.0315457 63.9747634,30.1577287 C63.9747634,30.6624606 63.9747634,31.1671924 63.9747634,31.6719243 Z" id="Shape"></path>
                        </g>
                    </g>
                </g>
            </g>
        </g>
    </g>
</svg>