<?xml version="1.0" encoding="UTF-8"?>
<svg width="18px" height="18px" viewBox="0 0 18 18" version="1.1" xmlns="http://www.w3.org/2000/svg" xmlns:xlink="http://www.w3.org/1999/xlink">
    <!-- Generator: Sketch 49.3 (51167) - http://www.bohemiancoding.com/sketch -->
    <title>clock</title>
    <desc>Created with Sketch.</desc>
    <defs>
        <path d="M8.25,16.5 C3.69365081,16.5 0,12.8063492 0,8.25 C0,3.69365081 3.69365081,0 8.25,0 C12.8063492,0 16.5,3.69365081 16.5,8.25 C16.5,12.8063492 12.8063492,16.5 8.25,16.5 Z M8.25,15 C11.9779221,15 15,11.9779221 15,8.25 C15,4.52207794 11.9779221,1.5 8.25,1.5 C4.52207794,1.5 1.5,4.52207794 1.5,8.25 C1.5,11.9779221 4.52207794,15 8.25,15 Z M9,3.75 L9,7.93933983 L11.0303301,9.96966991 C11.3232233,10.2625631 11.3232233,10.7374369 11.0303301,11.0303301 C10.7374369,11.3232233 10.2625631,11.3232233 9.96966991,11.0303301 L7.71966991,8.78033009 C7.57901763,8.6396778 7.5,8.44891237 7.5,8.25 L7.5,3.75 C7.5,3.33578644 7.83578644,3 8.25,3 C8.66421356,3 9,3.33578644 9,3.75 Z" id="path-1"></path>
    </defs>
    <g id="Fund" stroke="none" stroke-width="1" fill="none" fill-rule="evenodd">
        <g id="Affiliate-Binary-white-Notification" transform="translate(-721.000000, -692.000000)">
            <g id="Notification" transform="translate(694.000000, 356.000000)">
                <g id="Group-7" transform="translate(0.000000, 314.000000)">
                    <g id="clock" transform="translate(27.000000, 22.000000)">
                        <g id="Group" transform="translate(0.750000, 0.750000)">
                            <mask id="mask-2" fill="white">
                                <use xlink:href="#path-1"></use>
                            </mask>
                            <g id="Combined-Shape" fill-rule="nonzero"></g>
                            <g id="Blue" mask="url(#mask-2)" fill="#455074">
                                <g transform="translate(-0.750000, -0.750000)" id="Black-Blue">
                                    <path d="M0,0 L18,0 L18,18 L0,18 L0,0 Z"></path>
                                </g>
                            </g>
                        </g>
                    </g>
                </g>
            </g>
        </g>
    </g>
</svg>